<svg width="21" height="24" viewBox="0 0 21 24" fill="none" xmlns="http://www.w3.org/2000/svg">
<path d="M2.64924 23.4851C2.02946 23.4851 1.4989 23.2644 1.05754 22.823C0.616186 22.3817 0.395508 21.8511 0.395508 21.2313V5.45522C0.395508 4.83544 0.616186 4.30487 1.05754 3.86352C1.4989 3.42216 2.02946 3.20148 2.64924 3.20148H3.7761V0.947754H6.02983V3.20148H15.0448V0.947754H17.2985V3.20148H18.4254C19.0451 3.20148 19.5757 3.42216 20.0171 3.86352C20.4584 4.30487 20.6791 4.83544 20.6791 5.45522V21.2313C20.6791 21.8511 20.4584 22.3817 20.0171 22.823C19.5757 23.2644 19.0451 23.4851 18.4254 23.4851H2.64924ZM2.64924 21.2313H18.4254V9.96268H2.64924V21.2313ZM2.64924 7.70895H18.4254V5.45522H2.64924V7.70895ZM10.5373 14.4701C10.218 14.4701 9.95039 14.3621 9.7344 14.1462C9.51842 13.9302 9.41043 13.6626 9.41043 13.3433C9.41043 13.024 9.51842 12.7564 9.7344 12.5404C9.95039 12.3244 10.218 12.2164 10.5373 12.2164C10.8566 12.2164 11.1242 12.3244 11.3402 12.5404C11.5562 12.7564 11.6642 13.024 11.6642 13.3433C11.6642 13.6626 11.5562 13.9302 11.3402 14.1462C11.1242 14.3621 10.8566 14.4701 10.5373 14.4701ZM6.02983 14.4701C5.71056 14.4701 5.44293 14.3621 5.22694 14.1462C5.01096 13.9302 4.90297 13.6626 4.90297 13.3433C4.90297 13.024 5.01096 12.7564 5.22694 12.5404C5.44293 12.3244 5.71056 12.2164 6.02983 12.2164C6.34911 12.2164 6.61674 12.3244 6.83273 12.5404C7.04871 12.7564 7.1567 13.024 7.1567 13.3433C7.1567 13.6626 7.04871 13.9302 6.83273 14.1462C6.61674 14.3621 6.34911 14.4701 6.02983 14.4701ZM15.0448 14.4701C14.7255 14.4701 14.4578 14.3621 14.2419 14.1462C14.0259 13.9302 13.9179 13.6626 13.9179 13.3433C13.9179 13.024 14.0259 12.7564 14.2419 12.5404C14.4578 12.3244 14.7255 12.2164 15.0448 12.2164C15.364 12.2164 15.6317 12.3244 15.8476 12.5404C16.0636 12.7564 16.1716 13.024 16.1716 13.3433C16.1716 13.6626 16.0636 13.9302 15.8476 14.1462C15.6317 14.3621 15.364 14.4701 15.0448 14.4701ZM10.5373 18.9776C10.218 18.9776 9.95039 18.8696 9.7344 18.6536C9.51842 18.4376 9.41043 18.17 9.41043 17.8507C9.41043 17.5315 9.51842 17.2638 9.7344 17.0478C9.95039 16.8319 10.218 16.7239 10.5373 16.7239C10.8566 16.7239 11.1242 16.8319 11.3402 17.0478C11.5562 17.2638 11.6642 17.5315 11.6642 17.8507C11.6642 18.17 11.5562 18.4376 11.3402 18.6536C11.1242 18.8696 10.8566 18.9776 10.5373 18.9776ZM6.02983 18.9776C5.71056 18.9776 5.44293 18.8696 5.22694 18.6536C5.01096 18.4376 4.90297 18.17 4.90297 17.8507C4.90297 17.5315 5.01096 17.2638 5.22694 17.0478C5.44293 16.8319 5.71056 16.7239 6.02983 16.7239C6.34911 16.7239 6.61674 16.8319 6.83273 17.0478C7.04871 17.2638 7.1567 17.5315 7.1567 17.8507C7.1567 18.17 7.04871 18.4376 6.83273 18.6536C6.61674 18.8696 6.34911 18.9776 6.02983 18.9776ZM15.0448 18.9776C14.7255 18.9776 14.4578 18.8696 14.2419 18.6536C14.0259 18.4376 13.9179 18.17 13.9179 17.8507C13.9179 17.5315 14.0259 17.2638 14.2419 17.0478C14.4578 16.8319 14.7255 16.7239 15.0448 16.7239C15.364 16.7239 15.6317 16.8319 15.8476 17.0478C16.0636 17.2638 16.1716 17.5315 16.1716 17.8507C16.1716 18.17 16.0636 18.4376 15.8476 18.6536C15.6317 18.8696 15.364 18.9776 15.0448 18.9776Z" fill="#0A0505"/>
</svg>
