<svg width="23" height="23" viewBox="0 0 23 23" fill="none" xmlns="http://www.w3.org/2000/svg">
<path d="M5.08688 17.0157C6.01279 16.2832 7.04763 15.7057 8.1914 15.2831C9.33517 14.8605 10.5334 14.6493 11.7861 14.6493C13.0388 14.6493 14.237 14.8605 15.3808 15.2831C16.5246 15.7057 17.5594 16.2832 18.4853 17.0157C19.1207 16.2456 19.6155 15.3723 19.9695 14.3957C20.3235 13.4191 20.5005 12.3767 20.5005 11.2687C20.5005 8.77077 19.6518 6.64381 17.9543 4.88778C16.2568 3.13175 14.2007 2.25373 11.7861 2.25373C9.37148 2.25373 7.31542 3.13175 5.61792 4.88778C3.92042 6.64381 3.07167 8.77077 3.07167 11.2687C3.07167 12.3767 3.24868 13.4191 3.60271 14.3957C3.95673 15.3723 4.45146 16.2456 5.08688 17.0157ZM11.7861 12.3955C10.715 12.3955 9.81174 12.0152 9.07646 11.2546C8.34118 10.4939 7.97354 9.55957 7.97354 8.45149C7.97354 7.34341 8.34118 6.40905 9.07646 5.64841C9.81174 4.88778 10.715 4.50746 11.7861 4.50746C12.8572 4.50746 13.7605 4.88778 14.4957 5.64841C15.231 6.40905 15.5987 7.34341 15.5987 8.45149C15.5987 9.55957 15.231 10.4939 14.4957 11.2546C13.7605 12.0152 12.8572 12.3955 11.7861 12.3955ZM11.7861 22.5373C10.2792 22.5373 8.86313 22.2415 7.53782 21.6499C6.2125 21.0583 5.05965 20.2554 4.07928 19.2412C3.09891 18.227 2.32278 17.0344 1.75089 15.6634C1.17901 14.2924 0.893066 12.8275 0.893066 11.2687C0.893066 9.70982 1.17901 8.2449 1.75089 6.87388C2.32278 5.50286 3.09891 4.31026 4.07928 3.29608C5.05965 2.2819 6.2125 1.47901 7.53782 0.887406C8.86313 0.295802 10.2792 0 11.7861 0C13.293 0 14.7091 0.295802 16.0344 0.887406C17.3597 1.47901 18.5125 2.2819 19.4929 3.29608C20.4733 4.31026 21.2494 5.50286 21.8213 6.87388C22.3932 8.2449 22.6791 9.70982 22.6791 11.2687C22.6791 12.8275 22.3932 14.2924 21.8213 15.6634C21.2494 17.0344 20.4733 18.227 19.4929 19.2412C18.5125 20.2554 17.3597 21.0583 16.0344 21.6499C14.7091 22.2415 13.293 22.5373 11.7861 22.5373ZM11.7861 20.2836C12.7483 20.2836 13.6561 20.138 14.5094 19.8469C15.3626 19.5558 16.1433 19.1379 16.8514 18.5933C16.1433 18.0486 15.3626 17.6307 14.5094 17.3396C13.6561 17.0485 12.7483 16.903 11.7861 16.903C10.8239 16.903 9.91613 17.0485 9.06284 17.3396C8.20955 17.6307 7.42889 18.0486 6.72084 18.5933C7.42889 19.1379 8.20955 19.5558 9.06284 19.8469C9.91613 20.138 10.8239 20.2836 11.7861 20.2836ZM11.7861 10.1418C12.2581 10.1418 12.6485 9.98215 12.9571 9.66287C13.2657 9.34359 13.4201 8.9398 13.4201 8.45149C13.4201 7.96318 13.2657 7.55939 12.9571 7.24011C12.6485 6.92083 12.2581 6.76119 11.7861 6.76119C11.3141 6.76119 10.9237 6.92083 10.6151 7.24011C10.3065 7.55939 10.1521 7.96318 10.1521 8.45149C10.1521 8.9398 10.3065 9.34359 10.6151 9.66287C10.9237 9.98215 11.3141 10.1418 11.7861 10.1418Z" fill="#0A0505"/>
</svg>
