<svg width="22" height="18" viewBox="0 0 22 18" fill="none" xmlns="http://www.w3.org/2000/svg">
<path d="M2.46155 17.4229C1.89342 17.4229 1.40707 17.2206 1.00249 16.816C0.597918 16.4114 0.39563 15.9251 0.39563 15.3569V2.96143C0.39563 2.3933 0.597918 1.90695 1.00249 1.50237C1.40707 1.0978 1.89342 0.895508 2.46155 0.895508H18.9889C19.557 0.895508 20.0434 1.0978 20.448 1.50237C20.8525 1.90695 21.0548 2.3933 21.0548 2.96143V15.3569C21.0548 15.9251 20.8525 16.4114 20.448 16.816C20.0434 17.2206 19.557 17.4229 18.9889 17.4229H2.46155ZM10.7252 10.1921L2.46155 5.02735V15.3569H18.9889V5.02735L10.7252 10.1921ZM10.7252 8.12623L18.9889 2.96143H2.46155L10.7252 8.12623ZM2.46155 5.02735V2.96143V15.3569V5.02735Z" fill="#0A0505"/>
</svg>
