<svg width="412" height="207" viewBox="0 0 412 207" fill="none" xmlns="http://www.w3.org/2000/svg">
<path d="M20.1318 20.168C18.5478 20.168 17.0918 19.8 15.7638 19.064C14.4518 18.328 13.4038 17.304 12.6198 15.992C11.8518 14.664 11.4678 13.176 11.4678 11.528C11.4678 9.88 11.8518 8.4 12.6198 7.088C13.4038 5.776 14.4518 4.752 15.7638 4.016C17.0918 3.28 18.5478 2.912 20.1318 2.912C21.7158 2.912 23.1638 3.28 24.4758 4.016C25.8038 4.752 26.8438 5.776 27.5958 7.088C28.3638 8.4 28.7478 9.88 28.7478 11.528C28.7478 13.176 28.3638 14.664 27.5958 15.992C26.8278 17.304 25.7878 18.328 24.4758 19.064C23.1638 19.8 21.7158 20.168 20.1318 20.168ZM20.1318 16.424C21.4758 16.424 22.5478 15.976 23.3478 15.08C24.1638 14.184 24.5718 13 24.5718 11.528C24.5718 10.04 24.1638 8.856 23.3478 7.976C22.5478 7.08 21.4758 6.632 20.1318 6.632C18.7718 6.632 17.6838 7.072 16.8678 7.952C16.0678 8.832 15.6678 10.024 15.6678 11.528C15.6678 13.016 16.0678 14.208 16.8678 15.104C17.6838 15.984 18.7718 16.424 20.1318 16.424ZM41.5649 20.192C40.3969 20.192 39.3569 19.992 38.4449 19.592C37.5329 19.192 36.8129 18.648 36.2849 17.96C35.7569 17.256 35.4609 16.472 35.3969 15.608H39.4529C39.5009 16.072 39.7169 16.448 40.1009 16.736C40.4849 17.024 40.9569 17.168 41.5169 17.168C42.0289 17.168 42.4209 17.072 42.6929 16.88C42.9809 16.672 43.1249 16.408 43.1249 16.088C43.1249 15.704 42.9249 15.424 42.5249 15.248C42.1249 15.056 41.4769 14.848 40.5809 14.624C39.6209 14.4 38.8209 14.168 38.1809 13.928C37.5409 13.672 36.9889 13.28 36.5249 12.752C36.0609 12.208 35.8289 11.48 35.8289 10.568C35.8289 9.8 36.0369 9.104 36.4529 8.48C36.8849 7.84 37.5089 7.336 38.3249 6.968C39.1569 6.6 40.1409 6.416 41.2769 6.416C42.9569 6.416 44.2769 6.832 45.2369 7.664C46.2129 8.496 46.7729 9.6 46.9169 10.976H43.1249C43.0609 10.512 42.8529 10.144 42.5009 9.872C42.1649 9.6 41.7169 9.464 41.1569 9.464C40.6769 9.464 40.3089 9.56 40.0529 9.752C39.7969 9.928 39.6689 10.176 39.6689 10.496C39.6689 10.88 39.8689 11.168 40.2689 11.36C40.6849 11.552 41.3249 11.744 42.1889 11.936C43.1809 12.192 43.9889 12.448 44.6129 12.704C45.2369 12.944 45.7809 13.344 46.2449 13.904C46.7249 14.448 46.9729 15.184 46.9889 16.112C46.9889 16.896 46.7649 17.6 46.3169 18.224C45.8849 18.832 45.2529 19.312 44.4209 19.664C43.6049 20.016 42.6529 20.192 41.5649 20.192ZM62.1237 13.088C62.1237 13.472 62.0997 13.872 62.0517 14.288H52.7637C52.8277 15.12 53.0917 15.76 53.5557 16.208C54.0357 16.64 54.6197 16.856 55.3077 16.856C56.3317 16.856 57.0437 16.424 57.4437 15.56H61.8117C61.5877 16.44 61.1797 17.232 60.5877 17.936C60.0117 18.64 59.2837 19.192 58.4037 19.592C57.5237 19.992 56.5397 20.192 55.4517 20.192C54.1397 20.192 52.9717 19.912 51.9477 19.352C50.9237 18.792 50.1237 17.992 49.5477 16.952C48.9717 15.912 48.6837 14.696 48.6837 13.304C48.6837 11.912 48.9637 10.696 49.5237 9.656C50.0997 8.616 50.8997 7.816 51.9237 7.256C52.9477 6.696 54.1237 6.416 55.4517 6.416C56.7477 6.416 57.8997 6.688 58.9077 7.232C59.9157 7.776 60.6997 8.552 61.2597 9.56C61.8357 10.568 62.1237 11.744 62.1237 13.088ZM57.9237 12.008C57.9237 11.304 57.6837 10.744 57.2037 10.328C56.7237 9.912 56.1237 9.704 55.4037 9.704C54.7157 9.704 54.1317 9.904 53.6517 10.304C53.1877 10.704 52.8997 11.272 52.7877 12.008H57.9237ZM77.5128 6.608V20H73.4088V18.176C72.9928 18.768 72.4248 19.248 71.7048 19.616C71.0008 19.968 70.2168 20.144 69.3528 20.144C68.3288 20.144 67.4248 19.92 66.6408 19.472C65.8568 19.008 65.2488 18.344 64.8168 17.48C64.3848 16.616 64.1688 15.6 64.1688 14.432V6.608H68.2488V13.88C68.2488 14.776 68.4808 15.472 68.9448 15.968C69.4088 16.464 70.0328 16.712 70.8168 16.712C71.6168 16.712 72.2488 16.464 72.7128 15.968C73.1768 15.472 73.4088 14.776 73.4088 13.88V6.608H77.5128ZM89.6506 8.504C90.0506 7.88 90.6026 7.376 91.3066 6.992C92.0106 6.608 92.8346 6.416 93.7786 6.416C94.8826 6.416 95.8826 6.696 96.7786 7.256C97.6746 7.816 98.3786 8.616 98.8906 9.656C99.4186 10.696 99.6826 11.904 99.6826 13.28C99.6826 14.656 99.4186 15.872 98.8906 16.928C98.3786 17.968 97.6746 18.776 96.7786 19.352C95.8826 19.912 94.8826 20.192 93.7786 20.192C92.8506 20.192 92.0266 20 91.3066 19.616C90.6026 19.232 90.0506 18.736 89.6506 18.128V26.384H85.5466V6.608H89.6506V8.504ZM95.5066 13.28C95.5066 12.256 95.2186 11.456 94.6426 10.88C94.0826 10.288 93.3866 9.992 92.5546 9.992C91.7386 9.992 91.0426 10.288 90.4666 10.88C89.9066 11.472 89.6266 12.28 89.6266 13.304C89.6266 14.328 89.9066 15.136 90.4666 15.728C91.0426 16.32 91.7386 16.616 92.5546 16.616C93.3706 16.616 94.0666 16.32 94.6426 15.728C95.2186 15.12 95.5066 14.304 95.5066 13.28ZM114.46 13.088C114.46 13.472 114.436 13.872 114.388 14.288H105.1C105.164 15.12 105.428 15.76 105.892 16.208C106.372 16.64 106.956 16.856 107.644 16.856C108.668 16.856 109.38 16.424 109.78 15.56H114.148C113.924 16.44 113.516 17.232 112.924 17.936C112.348 18.64 111.62 19.192 110.74 19.592C109.86 19.992 108.876 20.192 107.788 20.192C106.476 20.192 105.308 19.912 104.284 19.352C103.26 18.792 102.46 17.992 101.884 16.952C101.308 15.912 101.02 14.696 101.02 13.304C101.02 11.912 101.3 10.696 101.86 9.656C102.436 8.616 103.236 7.816 104.26 7.256C105.284 6.696 106.46 6.416 107.788 6.416C109.084 6.416 110.236 6.688 111.244 7.232C112.252 7.776 113.036 8.552 113.596 9.56C114.172 10.568 114.46 11.744 114.46 13.088ZM110.26 12.008C110.26 11.304 110.02 10.744 109.54 10.328C109.06 9.912 108.46 9.704 107.74 9.704C107.052 9.704 106.468 9.904 105.988 10.304C105.524 10.704 105.236 11.272 105.124 12.008H110.26ZM120.729 8.84C121.209 8.104 121.809 7.528 122.529 7.112C123.249 6.68 124.049 6.464 124.929 6.464V10.808H123.801C122.777 10.808 122.009 11.032 121.497 11.48C120.985 11.912 120.729 12.68 120.729 13.784V20H116.625V6.608H120.729V8.84ZM133.61 10.016H131.402V20H127.298V10.016H125.81V6.608H127.298V6.224C127.298 4.576 127.77 3.328 128.714 2.48C129.658 1.616 131.042 1.184 132.866 1.184C133.17 1.184 133.394 1.192 133.538 1.208V4.688C132.754 4.64 132.202 4.752 131.882 5.024C131.562 5.296 131.402 5.784 131.402 6.488V6.608H133.61V10.016ZM137.603 5.216C136.883 5.216 136.291 5.008 135.827 4.592C135.379 4.16 135.155 3.632 135.155 3.008C135.155 2.368 135.379 1.84 135.827 1.424C136.291 0.991999 136.883 0.775999 137.603 0.775999C138.307 0.775999 138.883 0.991999 139.331 1.424C139.795 1.84 140.027 2.368 140.027 3.008C140.027 3.632 139.795 4.16 139.331 4.592C138.883 5.008 138.307 5.216 137.603 5.216ZM139.643 6.608V20H135.539V6.608H139.643ZM146.721 2.24V20H142.617V2.24H146.721ZM156.821 5.216C156.101 5.216 155.509 5.008 155.045 4.592C154.597 4.16 154.373 3.632 154.373 3.008C154.373 2.368 154.597 1.84 155.045 1.424C155.509 0.991999 156.101 0.775999 156.821 0.775999C157.525 0.775999 158.101 0.991999 158.549 1.424C159.013 1.84 159.245 2.368 159.245 3.008C159.245 3.632 159.013 4.16 158.549 4.592C158.101 5.008 157.525 5.216 156.821 5.216ZM158.885 21.728C158.885 23.376 158.469 24.56 157.637 25.28C156.805 26.016 155.645 26.384 154.157 26.384H152.549V22.904H153.533C153.981 22.904 154.301 22.816 154.493 22.64C154.685 22.464 154.781 22.176 154.781 21.776V6.608H158.885V21.728ZM161.02 13.28C161.02 11.904 161.276 10.696 161.788 9.656C162.316 8.616 163.028 7.816 163.924 7.256C164.82 6.696 165.82 6.416 166.924 6.416C167.868 6.416 168.692 6.608 169.396 6.992C170.116 7.376 170.668 7.88 171.052 8.504V6.608H175.156V20H171.052V18.104C170.652 18.728 170.092 19.232 169.372 19.616C168.668 20 167.844 20.192 166.9 20.192C165.812 20.192 164.82 19.912 163.924 19.352C163.028 18.776 162.316 17.968 161.788 16.928C161.276 15.872 161.02 14.656 161.02 13.28ZM171.052 13.304C171.052 12.28 170.764 11.472 170.188 10.88C169.628 10.288 168.94 9.992 168.124 9.992C167.308 9.992 166.612 10.288 166.036 10.88C165.476 11.456 165.196 12.256 165.196 13.28C165.196 14.304 165.476 15.12 166.036 15.728C166.612 16.32 167.308 16.616 168.124 16.616C168.94 16.616 169.628 16.32 170.188 15.728C170.764 15.136 171.052 14.328 171.052 13.304ZM189.931 10.016H187.723V20H183.619V10.016H182.131V6.608H183.619V6.224C183.619 4.576 184.091 3.328 185.035 2.48C185.979 1.616 187.363 1.184 189.187 1.184C189.491 1.184 189.715 1.192 189.859 1.208V4.688C189.075 4.64 188.523 4.752 188.203 5.024C187.883 5.296 187.723 5.784 187.723 6.488V6.608H189.931V10.016ZM197.955 20.192C196.643 20.192 195.459 19.912 194.403 19.352C193.363 18.792 192.539 17.992 191.931 16.952C191.339 15.912 191.043 14.696 191.043 13.304C191.043 11.928 191.347 10.72 191.955 9.68C192.563 8.624 193.395 7.816 194.451 7.256C195.507 6.696 196.691 6.416 198.003 6.416C199.315 6.416 200.499 6.696 201.555 7.256C202.611 7.816 203.443 8.624 204.051 9.68C204.659 10.72 204.963 11.928 204.963 13.304C204.963 14.68 204.651 15.896 204.027 16.952C203.419 17.992 202.579 18.792 201.507 19.352C200.451 19.912 199.267 20.192 197.955 20.192ZM197.955 16.64C198.739 16.64 199.403 16.352 199.947 15.776C200.507 15.2 200.787 14.376 200.787 13.304C200.787 12.232 200.515 11.408 199.971 10.832C199.443 10.256 198.787 9.968 198.003 9.968C197.203 9.968 196.539 10.256 196.011 10.832C195.483 11.392 195.219 12.216 195.219 13.304C195.219 14.376 195.475 15.2 195.987 15.776C196.515 16.352 197.171 16.64 197.955 16.64ZM209.204 5.216C208.484 5.216 207.892 5.008 207.428 4.592C206.98 4.16 206.756 3.632 206.756 3.008C206.756 2.368 206.98 1.84 207.428 1.424C207.892 0.991999 208.484 0.775999 209.204 0.775999C209.908 0.775999 210.484 0.991999 210.932 1.424C211.396 1.84 211.628 2.368 211.628 3.008C211.628 3.632 211.396 4.16 210.932 4.592C210.484 5.008 209.908 5.216 209.204 5.216ZM211.244 6.608V20H207.14V6.608H211.244ZM231.928 13.088C231.928 13.472 231.904 13.872 231.856 14.288H222.568C222.632 15.12 222.896 15.76 223.36 16.208C223.84 16.64 224.424 16.856 225.112 16.856C226.136 16.856 226.848 16.424 227.248 15.56H231.616C231.392 16.44 230.984 17.232 230.392 17.936C229.816 18.64 229.088 19.192 228.208 19.592C227.328 19.992 226.344 20.192 225.256 20.192C223.944 20.192 222.776 19.912 221.752 19.352C220.728 18.792 219.928 17.992 219.352 16.952C218.776 15.912 218.488 14.696 218.488 13.304C218.488 11.912 218.768 10.696 219.328 9.656C219.904 8.616 220.704 7.816 221.728 7.256C222.752 6.696 223.928 6.416 225.256 6.416C226.552 6.416 227.704 6.688 228.712 7.232C229.72 7.776 230.504 8.552 231.064 9.56C231.64 10.568 231.928 11.744 231.928 13.088ZM227.728 12.008C227.728 11.304 227.488 10.744 227.008 10.328C226.528 9.912 225.928 9.704 225.208 9.704C224.52 9.704 223.936 9.904 223.456 10.304C222.992 10.704 222.704 11.272 222.592 12.008H227.728ZM242.253 6.464C243.821 6.464 245.069 6.976 245.997 8C246.941 9.008 247.413 10.4 247.413 12.176V20H243.333V12.728C243.333 11.832 243.101 11.136 242.637 10.64C242.173 10.144 241.549 9.896 240.765 9.896C239.981 9.896 239.357 10.144 238.893 10.64C238.429 11.136 238.197 11.832 238.197 12.728V20H234.093V6.608H238.197V8.384C238.613 7.792 239.173 7.328 239.877 6.992C240.581 6.64 241.373 6.464 242.253 6.464ZM256.289 16.16L259.193 6.608H263.561L258.809 20H253.745L248.993 6.608H253.385L256.289 16.16ZM267.353 5.216C266.633 5.216 266.041 5.008 265.577 4.592C265.129 4.16 264.905 3.632 264.905 3.008C264.905 2.368 265.129 1.84 265.577 1.424C266.041 0.991999 266.633 0.775999 267.353 0.775999C268.057 0.775999 268.633 0.991999 269.081 1.424C269.545 1.84 269.777 2.368 269.777 3.008C269.777 3.632 269.545 4.16 269.081 4.592C268.633 5.008 268.057 5.216 267.353 5.216ZM269.393 6.608V20H265.289V6.608H269.393ZM271.551 13.28C271.551 11.904 271.807 10.696 272.319 9.656C272.847 8.616 273.559 7.816 274.455 7.256C275.351 6.696 276.351 6.416 277.455 6.416C278.399 6.416 279.223 6.608 279.927 6.992C280.647 7.376 281.199 7.88 281.583 8.504V6.608H285.687V20H281.583V18.104C281.183 18.728 280.623 19.232 279.903 19.616C279.199 20 278.375 20.192 277.431 20.192C276.343 20.192 275.351 19.912 274.455 19.352C273.559 18.776 272.847 17.968 272.319 16.928C271.807 15.872 271.551 14.656 271.551 13.28ZM281.583 13.304C281.583 12.28 281.295 11.472 280.719 10.88C280.159 10.288 279.471 9.992 278.655 9.992C277.839 9.992 277.143 10.288 276.567 10.88C276.007 11.456 275.727 12.256 275.727 13.28C275.727 14.304 276.007 15.12 276.567 15.728C277.143 16.32 277.839 16.616 278.655 16.616C279.471 16.616 280.159 16.32 280.719 15.728C281.295 15.136 281.583 14.328 281.583 13.304ZM287.84 13.28C287.84 11.904 288.096 10.696 288.608 9.656C289.136 8.616 289.848 7.816 290.744 7.256C291.64 6.696 292.64 6.416 293.744 6.416C294.624 6.416 295.424 6.6 296.144 6.968C296.88 7.336 297.456 7.832 297.872 8.456V2.24H301.976V20H297.872V18.08C297.488 18.72 296.936 19.232 296.216 19.616C295.512 20 294.688 20.192 293.744 20.192C292.64 20.192 291.64 19.912 290.744 19.352C289.848 18.776 289.136 17.968 288.608 16.928C288.096 15.872 287.84 14.656 287.84 13.28ZM297.872 13.304C297.872 12.28 297.584 11.472 297.008 10.88C296.448 10.288 295.76 9.992 294.944 9.992C294.128 9.992 293.432 10.288 292.856 10.88C292.296 11.456 292.016 12.256 292.016 13.28C292.016 14.304 292.296 15.12 292.856 15.728C293.432 16.32 294.128 16.616 294.944 16.616C295.76 16.616 296.448 16.32 297.008 15.728C297.584 15.136 297.872 14.328 297.872 13.304ZM311.041 20.192C309.729 20.192 308.545 19.912 307.489 19.352C306.449 18.792 305.625 17.992 305.017 16.952C304.425 15.912 304.129 14.696 304.129 13.304C304.129 11.928 304.433 10.72 305.041 9.68C305.649 8.624 306.481 7.816 307.537 7.256C308.593 6.696 309.777 6.416 311.089 6.416C312.401 6.416 313.585 6.696 314.641 7.256C315.697 7.816 316.529 8.624 317.137 9.68C317.745 10.72 318.049 11.928 318.049 13.304C318.049 14.68 317.737 15.896 317.113 16.952C316.505 17.992 315.665 18.792 314.593 19.352C313.537 19.912 312.353 20.192 311.041 20.192ZM311.041 16.64C311.825 16.64 312.489 16.352 313.033 15.776C313.593 15.2 313.873 14.376 313.873 13.304C313.873 12.232 313.601 11.408 313.057 10.832C312.529 10.256 311.873 9.968 311.089 9.968C310.289 9.968 309.625 10.256 309.097 10.832C308.569 11.392 308.305 12.216 308.305 13.304C308.305 14.376 308.561 15.2 309.073 15.776C309.601 16.352 310.257 16.64 311.041 16.64ZM329.416 8.504C329.816 7.88 330.368 7.376 331.072 6.992C331.776 6.608 332.6 6.416 333.544 6.416C334.648 6.416 335.648 6.696 336.544 7.256C337.44 7.816 338.144 8.616 338.656 9.656C339.184 10.696 339.448 11.904 339.448 13.28C339.448 14.656 339.184 15.872 338.656 16.928C338.144 17.968 337.44 18.776 336.544 19.352C335.648 19.912 334.648 20.192 333.544 20.192C332.616 20.192 331.792 20 331.072 19.616C330.368 19.232 329.816 18.736 329.416 18.128V26.384H325.312V6.608H329.416V8.504ZM335.272 13.28C335.272 12.256 334.984 11.456 334.408 10.88C333.848 10.288 333.152 9.992 332.32 9.992C331.504 9.992 330.808 10.288 330.232 10.88C329.672 11.472 329.392 12.28 329.392 13.304C329.392 14.328 329.672 15.136 330.232 15.728C330.808 16.32 331.504 16.616 332.32 16.616C333.136 16.616 333.832 16.32 334.408 15.728C334.984 15.12 335.272 14.304 335.272 13.28ZM340.785 13.28C340.785 11.904 341.041 10.696 341.553 9.656C342.081 8.616 342.793 7.816 343.689 7.256C344.585 6.696 345.585 6.416 346.689 6.416C347.633 6.416 348.457 6.608 349.161 6.992C349.881 7.376 350.433 7.88 350.817 8.504V6.608H354.921V20H350.817V18.104C350.417 18.728 349.857 19.232 349.137 19.616C348.433 20 347.609 20.192 346.665 20.192C345.577 20.192 344.585 19.912 343.689 19.352C342.793 18.776 342.081 17.968 341.553 16.928C341.041 15.872 340.785 14.656 340.785 13.28ZM350.817 13.304C350.817 12.28 350.529 11.472 349.953 10.88C349.393 10.288 348.705 9.992 347.889 9.992C347.073 9.992 346.377 10.288 345.801 10.88C345.241 11.456 344.961 12.256 344.961 13.28C344.961 14.304 345.241 15.12 345.801 15.728C346.377 16.32 347.073 16.616 347.889 16.616C348.705 16.616 349.393 16.32 349.953 15.728C350.529 15.136 350.817 14.328 350.817 13.304ZM361.994 8.84C362.474 8.104 363.074 7.528 363.794 7.112C364.514 6.68 365.314 6.464 366.194 6.464V10.808H365.066C364.042 10.808 363.274 11.032 362.762 11.48C362.25 11.912 361.994 12.68 361.994 13.784V20H357.89V6.608H361.994V8.84ZM367.34 13.28C367.34 11.904 367.596 10.696 368.108 9.656C368.636 8.616 369.348 7.816 370.244 7.256C371.14 6.696 372.14 6.416 373.244 6.416C374.188 6.416 375.012 6.608 375.716 6.992C376.436 7.376 376.988 7.88 377.372 8.504V6.608H381.476V20H377.372V18.104C376.972 18.728 376.412 19.232 375.692 19.616C374.988 20 374.164 20.192 373.22 20.192C372.132 20.192 371.14 19.912 370.244 19.352C369.348 18.776 368.636 17.968 368.108 16.928C367.596 15.872 367.34 14.656 367.34 13.28ZM377.372 13.304C377.372 12.28 377.084 11.472 376.508 10.88C375.948 10.288 375.26 9.992 374.444 9.992C373.628 9.992 372.932 10.288 372.356 10.88C371.796 11.456 371.516 12.256 371.516 13.28C371.516 14.304 371.796 15.12 372.356 15.728C372.932 16.32 373.628 16.616 374.444 16.616C375.26 16.616 375.948 16.32 376.508 15.728C377.084 15.136 377.372 14.328 377.372 13.304ZM395.627 20.192C394.315 20.192 393.131 19.912 392.075 19.352C391.035 18.792 390.211 17.992 389.603 16.952C389.011 15.912 388.715 14.696 388.715 13.304C388.715 11.928 389.019 10.72 389.627 9.68C390.235 8.624 391.067 7.816 392.123 7.256C393.179 6.696 394.363 6.416 395.675 6.416C396.987 6.416 398.171 6.696 399.227 7.256C400.283 7.816 401.115 8.624 401.723 9.68C402.331 10.72 402.635 11.928 402.635 13.304C402.635 14.68 402.323 15.896 401.699 16.952C401.091 17.992 400.251 18.792 399.179 19.352C398.123 19.912 396.939 20.192 395.627 20.192ZM395.627 16.64C396.411 16.64 397.075 16.352 397.619 15.776C398.179 15.2 398.459 14.376 398.459 13.304C398.459 12.232 398.187 11.408 397.643 10.832C397.115 10.256 396.459 9.968 395.675 9.968C394.875 9.968 394.211 10.256 393.683 10.832C393.155 11.392 392.891 12.216 392.891 13.304C392.891 14.376 393.147 15.2 393.659 15.776C394.187 16.352 394.843 16.64 395.627 16.64ZM15.6196 56.192C14.4516 56.192 13.4116 55.992 12.4996 55.592C11.5876 55.192 10.8676 54.648 10.3396 53.96C9.81159 53.256 9.51559 52.472 9.45159 51.608H13.5076C13.5556 52.072 13.7716 52.448 14.1556 52.736C14.5396 53.024 15.0116 53.168 15.5716 53.168C16.0836 53.168 16.4756 53.072 16.7476 52.88C17.0356 52.672 17.1796 52.408 17.1796 52.088C17.1796 51.704 16.9796 51.424 16.5796 51.248C16.1796 51.056 15.5316 50.848 14.6356 50.624C13.6756 50.4 12.8756 50.168 12.2356 49.928C11.5956 49.672 11.0436 49.28 10.5796 48.752C10.1156 48.208 9.88359 47.48 9.88359 46.568C9.88359 45.8 10.0916 45.104 10.5076 44.48C10.9396 43.84 11.5636 43.336 12.3796 42.968C13.2116 42.6 14.1956 42.416 15.3316 42.416C17.0116 42.416 18.3316 42.832 19.2916 43.664C20.2676 44.496 20.8276 45.6 20.9716 46.976H17.1796C17.1156 46.512 16.9076 46.144 16.5556 45.872C16.2196 45.6 15.7716 45.464 15.2116 45.464C14.7316 45.464 14.3636 45.56 14.1076 45.752C13.8516 45.928 13.7236 46.176 13.7236 46.496C13.7236 46.88 13.9236 47.168 14.3236 47.36C14.7396 47.552 15.3796 47.744 16.2436 47.936C17.2356 48.192 18.0436 48.448 18.6676 48.704C19.2916 48.944 19.8356 49.344 20.2996 49.904C20.7796 50.448 21.0276 51.184 21.0436 52.112C21.0436 52.896 20.8196 53.6 20.3716 54.224C19.9396 54.832 19.3076 55.312 18.4756 55.664C17.6596 56.016 16.7076 56.192 15.6196 56.192ZM36.7784 42.608V56H32.6744V54.176C32.2584 54.768 31.6904 55.248 30.9704 55.616C30.2664 55.968 29.4824 56.144 28.6184 56.144C27.5944 56.144 26.6904 55.92 25.9064 55.472C25.1224 55.008 24.5144 54.344 24.0824 53.48C23.6504 52.616 23.4344 51.6 23.4344 50.432V42.608H27.5144V49.88C27.5144 50.776 27.7464 51.472 28.2104 51.968C28.6744 52.464 29.2984 52.712 30.0824 52.712C30.8824 52.712 31.5144 52.464 31.9784 51.968C32.4424 51.472 32.6744 50.776 32.6744 49.88V42.608H36.7784ZM43.8303 44.504C44.2303 43.88 44.7823 43.376 45.4863 42.992C46.1903 42.608 47.0143 42.416 47.9583 42.416C49.0623 42.416 50.0623 42.696 50.9583 43.256C51.8543 43.816 52.5583 44.616 53.0703 45.656C53.5983 46.696 53.8623 47.904 53.8623 49.28C53.8623 50.656 53.5983 51.872 53.0703 52.928C52.5583 53.968 51.8543 54.776 50.9583 55.352C50.0623 55.912 49.0623 56.192 47.9583 56.192C47.0303 56.192 46.2063 56 45.4863 55.616C44.7823 55.232 44.2303 54.736 43.8303 54.128V62.384H39.7263V42.608H43.8303V44.504ZM49.6863 49.28C49.6863 48.256 49.3983 47.456 48.8223 46.88C48.2623 46.288 47.5663 45.992 46.7343 45.992C45.9183 45.992 45.2223 46.288 44.6463 46.88C44.0863 47.472 43.8063 48.28 43.8063 49.304C43.8063 50.328 44.0863 51.136 44.6463 51.728C45.2223 52.32 45.9183 52.616 46.7343 52.616C47.5503 52.616 48.2463 52.32 48.8223 51.728C49.3983 51.12 49.6863 50.304 49.6863 49.28ZM62.1113 56.192C60.7993 56.192 59.6153 55.912 58.5593 55.352C57.5193 54.792 56.6953 53.992 56.0873 52.952C55.4953 51.912 55.1993 50.696 55.1993 49.304C55.1993 47.928 55.5033 46.72 56.1113 45.68C56.7193 44.624 57.5513 43.816 58.6073 43.256C59.6633 42.696 60.8473 42.416 62.1593 42.416C63.4713 42.416 64.6553 42.696 65.7113 43.256C66.7673 43.816 67.5993 44.624 68.2073 45.68C68.8153 46.72 69.1193 47.928 69.1193 49.304C69.1193 50.68 68.8073 51.896 68.1833 52.952C67.5753 53.992 66.7353 54.792 65.6633 55.352C64.6073 55.912 63.4233 56.192 62.1113 56.192ZM62.1113 52.64C62.8953 52.64 63.5593 52.352 64.1033 51.776C64.6633 51.2 64.9433 50.376 64.9433 49.304C64.9433 48.232 64.6713 47.408 64.1273 46.832C63.5993 46.256 62.9433 45.968 62.1593 45.968C61.3593 45.968 60.6953 46.256 60.1673 46.832C59.6393 47.392 59.3753 48.216 59.3753 49.304C59.3753 50.376 59.6313 51.2 60.1433 51.776C60.6713 52.352 61.3273 52.64 62.1113 52.64ZM75.4006 44.84C75.8806 44.104 76.4806 43.528 77.2006 43.112C77.9206 42.68 78.7206 42.464 79.6006 42.464V46.808H78.4726C77.4486 46.808 76.6806 47.032 76.1686 47.48C75.6566 47.912 75.4006 48.68 75.4006 49.784V56H71.2966V42.608H75.4006V44.84ZM89.0262 52.52V56H86.9382C85.4502 56 84.2902 55.64 83.4582 54.92C82.6262 54.184 82.2102 52.992 82.2102 51.344V46.016H80.5782V42.608H82.2102V39.344H86.3142V42.608H89.0022V46.016H86.3142V51.392C86.3142 51.792 86.4102 52.08 86.6022 52.256C86.7942 52.432 87.1142 52.52 87.5622 52.52H89.0262ZM103.936 49.088C103.936 49.472 103.912 49.872 103.864 50.288H94.5762C94.6402 51.12 94.9042 51.76 95.3682 52.208C95.8482 52.64 96.4322 52.856 97.1202 52.856C98.1442 52.856 98.8562 52.424 99.2562 51.56H103.624C103.4 52.44 102.992 53.232 102.4 53.936C101.824 54.64 101.096 55.192 100.216 55.592C99.3362 55.992 98.3522 56.192 97.2642 56.192C95.9522 56.192 94.7842 55.912 93.7602 55.352C92.7362 54.792 91.9362 53.992 91.3602 52.952C90.7842 51.912 90.4962 50.696 90.4962 49.304C90.4962 47.912 90.7762 46.696 91.3362 45.656C91.9122 44.616 92.7122 43.816 93.7362 43.256C94.7602 42.696 95.9362 42.416 97.2642 42.416C98.5602 42.416 99.7122 42.688 100.72 43.232C101.728 43.776 102.512 44.552 103.072 45.56C103.648 46.568 103.936 47.744 103.936 49.088ZM99.7362 48.008C99.7362 47.304 99.4962 46.744 99.0162 46.328C98.5362 45.912 97.9362 45.704 97.2162 45.704C96.5282 45.704 95.9442 45.904 95.4642 46.304C95.0002 46.704 94.7122 47.272 94.6002 48.008H99.7362ZM110.517 52.208L107.853 59.096H105.237L106.629 52.208H110.517ZM117.262 49.28C117.262 47.904 117.518 46.696 118.03 45.656C118.558 44.616 119.27 43.816 120.166 43.256C121.062 42.696 122.062 42.416 123.166 42.416C124.11 42.416 124.934 42.608 125.638 42.992C126.358 43.376 126.91 43.88 127.294 44.504V42.608H131.398V56H127.294V54.104C126.894 54.728 126.334 55.232 125.614 55.616C124.91 56 124.086 56.192 123.142 56.192C122.054 56.192 121.062 55.912 120.166 55.352C119.27 54.776 118.558 53.968 118.03 52.928C117.518 51.872 117.262 50.656 117.262 49.28ZM127.294 49.304C127.294 48.28 127.006 47.472 126.43 46.88C125.87 46.288 125.182 45.992 124.366 45.992C123.55 45.992 122.854 46.288 122.278 46.88C121.718 47.456 121.438 48.256 121.438 49.28C121.438 50.304 121.718 51.12 122.278 51.728C122.854 52.32 123.55 52.616 124.366 52.616C125.182 52.616 125.87 52.32 126.43 51.728C127.006 51.136 127.294 50.328 127.294 49.304ZM139.455 42.416C140.399 42.416 141.223 42.608 141.927 42.992C142.647 43.376 143.199 43.88 143.583 44.504V42.608H147.687V55.976C147.687 57.208 147.439 58.32 146.943 59.312C146.463 60.32 145.719 61.12 144.711 61.712C143.719 62.304 142.479 62.6 140.991 62.6C139.007 62.6 137.399 62.128 136.167 61.184C134.935 60.256 134.231 58.992 134.055 57.392H138.111C138.239 57.904 138.543 58.304 139.023 58.592C139.503 58.896 140.095 59.048 140.799 59.048C141.647 59.048 142.319 58.8 142.815 58.304C143.327 57.824 143.583 57.048 143.583 55.976V54.08C143.183 54.704 142.631 55.216 141.927 55.616C141.223 56 140.399 56.192 139.455 56.192C138.351 56.192 137.351 55.912 136.455 55.352C135.559 54.776 134.847 53.968 134.319 52.928C133.807 51.872 133.551 50.656 133.551 49.28C133.551 47.904 133.807 46.696 134.319 45.656C134.847 44.616 135.559 43.816 136.455 43.256C137.351 42.696 138.351 42.416 139.455 42.416ZM143.583 49.304C143.583 48.28 143.295 47.472 142.719 46.88C142.159 46.288 141.471 45.992 140.655 45.992C139.839 45.992 139.143 46.288 138.567 46.88C138.007 47.456 137.727 48.256 137.727 49.28C137.727 50.304 138.007 51.12 138.567 51.728C139.143 52.32 139.839 52.616 140.655 52.616C141.471 52.616 142.159 52.32 142.719 51.728C143.295 51.136 143.583 50.328 143.583 49.304ZM163.88 42.608V56H159.776V54.176C159.36 54.768 158.792 55.248 158.072 55.616C157.368 55.968 156.584 56.144 155.72 56.144C154.696 56.144 153.792 55.92 153.008 55.472C152.224 55.008 151.616 54.344 151.184 53.48C150.752 52.616 150.536 51.6 150.536 50.432V42.608H154.616V49.88C154.616 50.776 154.848 51.472 155.312 51.968C155.776 52.464 156.4 52.712 157.184 52.712C157.984 52.712 158.616 52.464 159.08 51.968C159.544 51.472 159.776 50.776 159.776 49.88V42.608H163.88ZM166.012 49.28C166.012 47.904 166.268 46.696 166.78 45.656C167.308 44.616 168.02 43.816 168.916 43.256C169.812 42.696 170.812 42.416 171.916 42.416C172.86 42.416 173.684 42.608 174.388 42.992C175.108 43.376 175.66 43.88 176.044 44.504V42.608H180.148V56H176.044V54.104C175.644 54.728 175.084 55.232 174.364 55.616C173.66 56 172.836 56.192 171.892 56.192C170.804 56.192 169.812 55.912 168.916 55.352C168.02 54.776 167.308 53.968 166.78 52.928C166.268 51.872 166.012 50.656 166.012 49.28ZM176.044 49.304C176.044 48.28 175.756 47.472 175.18 46.88C174.62 46.288 173.932 45.992 173.116 45.992C172.3 45.992 171.604 46.288 171.028 46.88C170.468 47.456 170.188 48.256 170.188 49.28C170.188 50.304 170.468 51.12 171.028 51.728C171.604 52.32 172.3 52.616 173.116 52.616C173.932 52.616 174.62 52.32 175.18 51.728C175.756 51.136 176.044 50.328 176.044 49.304ZM187.221 44.84C187.701 44.104 188.301 43.528 189.021 43.112C189.741 42.68 190.541 42.464 191.421 42.464V46.808H190.293C189.269 46.808 188.501 47.032 187.989 47.48C187.477 47.912 187.221 48.68 187.221 49.784V56H183.117V42.608H187.221V44.84ZM192.567 49.28C192.567 47.904 192.823 46.696 193.335 45.656C193.863 44.616 194.575 43.816 195.471 43.256C196.367 42.696 197.367 42.416 198.471 42.416C199.351 42.416 200.151 42.6 200.871 42.968C201.607 43.336 202.183 43.832 202.599 44.456V38.24H206.703V56H202.599V54.08C202.215 54.72 201.663 55.232 200.943 55.616C200.239 56 199.415 56.192 198.471 56.192C197.367 56.192 196.367 55.912 195.471 55.352C194.575 54.776 193.863 53.968 193.335 52.928C192.823 51.872 192.567 50.656 192.567 49.28ZM202.599 49.304C202.599 48.28 202.311 47.472 201.735 46.88C201.175 46.288 200.487 45.992 199.671 45.992C198.855 45.992 198.159 46.288 197.583 46.88C197.023 47.456 196.743 48.256 196.743 49.28C196.743 50.304 197.023 51.12 197.583 51.728C198.159 52.32 198.855 52.616 199.671 52.616C200.487 52.616 201.175 52.32 201.735 51.728C202.311 51.136 202.599 50.328 202.599 49.304ZM222.296 49.088C222.296 49.472 222.272 49.872 222.224 50.288H212.936C213 51.12 213.264 51.76 213.728 52.208C214.208 52.64 214.792 52.856 215.48 52.856C216.504 52.856 217.216 52.424 217.616 51.56H221.984C221.76 52.44 221.352 53.232 220.76 53.936C220.184 54.64 219.456 55.192 218.576 55.592C217.696 55.992 216.712 56.192 215.624 56.192C214.312 56.192 213.144 55.912 212.12 55.352C211.096 54.792 210.296 53.992 209.72 52.952C209.144 51.912 208.856 50.696 208.856 49.304C208.856 47.912 209.136 46.696 209.696 45.656C210.272 44.616 211.072 43.816 212.096 43.256C213.12 42.696 214.296 42.416 215.624 42.416C216.92 42.416 218.072 42.688 219.08 43.232C220.088 43.776 220.872 44.552 221.432 45.56C222.008 46.568 222.296 47.744 222.296 49.088ZM218.096 48.008C218.096 47.304 217.856 46.744 217.376 46.328C216.896 45.912 216.296 45.704 215.576 45.704C214.888 45.704 214.304 45.904 213.824 46.304C213.36 46.704 213.072 47.272 212.96 48.008H218.096ZM241.475 42.056H233.987V45.368C234.307 45.016 234.755 44.728 235.331 44.504C235.907 44.28 236.531 44.168 237.203 44.168C238.403 44.168 239.395 44.44 240.179 44.984C240.979 45.528 241.563 46.232 241.931 47.096C242.299 47.96 242.483 48.896 242.483 49.904C242.483 51.776 241.955 53.264 240.899 54.368C239.843 55.456 238.355 56 236.435 56C235.155 56 234.043 55.784 233.099 55.352C232.155 54.904 231.427 54.288 230.915 53.504C230.403 52.72 230.123 51.816 230.075 50.792H234.083C234.179 51.288 234.411 51.704 234.779 52.04C235.147 52.36 235.651 52.52 236.291 52.52C237.043 52.52 237.603 52.28 237.971 51.8C238.339 51.32 238.523 50.68 238.523 49.88C238.523 49.096 238.331 48.496 237.947 48.08C237.563 47.664 237.003 47.456 236.267 47.456C235.723 47.456 235.275 47.592 234.923 47.864C234.571 48.12 234.339 48.464 234.227 48.896H230.267V38.456H241.475V42.056ZM249.426 49.28C249.426 47.904 249.682 46.696 250.194 45.656C250.722 44.616 251.434 43.816 252.33 43.256C253.226 42.696 254.226 42.416 255.33 42.416C256.274 42.416 257.098 42.608 257.802 42.992C258.522 43.376 259.074 43.88 259.458 44.504V42.608H263.562V56H259.458V54.104C259.058 54.728 258.498 55.232 257.778 55.616C257.074 56 256.25 56.192 255.306 56.192C254.218 56.192 253.226 55.912 252.33 55.352C251.434 54.776 250.722 53.968 250.194 52.928C249.682 51.872 249.426 50.656 249.426 49.28ZM259.458 49.304C259.458 48.28 259.17 47.472 258.594 46.88C258.034 46.288 257.346 45.992 256.53 45.992C255.714 45.992 255.018 46.288 254.442 46.88C253.882 47.456 253.602 48.256 253.602 49.28C253.602 50.304 253.882 51.12 254.442 51.728C255.018 52.32 255.714 52.616 256.53 52.616C257.346 52.616 258.034 52.32 258.594 51.728C259.17 51.136 259.458 50.328 259.458 49.304ZM282.393 41.552L276.369 56H272.169L278.265 42.008H270.801V38.504H282.393V41.552ZM288.731 49.28C288.731 47.904 288.987 46.696 289.499 45.656C290.027 44.616 290.739 43.816 291.635 43.256C292.531 42.696 293.531 42.416 294.635 42.416C295.515 42.416 296.315 42.6 297.035 42.968C297.771 43.336 298.347 43.832 298.763 44.456V38.24H302.867V56H298.763V54.08C298.379 54.72 297.827 55.232 297.107 55.616C296.403 56 295.579 56.192 294.635 56.192C293.531 56.192 292.531 55.912 291.635 55.352C290.739 54.776 290.027 53.968 289.499 52.928C288.987 51.872 288.731 50.656 288.731 49.28ZM298.763 49.304C298.763 48.28 298.475 47.472 297.899 46.88C297.339 46.288 296.651 45.992 295.835 45.992C295.019 45.992 294.323 46.288 293.747 46.88C293.187 47.456 292.907 48.256 292.907 49.28C292.907 50.304 293.187 51.12 293.747 51.728C294.323 52.32 295.019 52.616 295.835 52.616C296.651 52.616 297.339 52.32 297.899 51.728C298.475 51.136 298.763 50.328 298.763 49.304ZM307.9 41.216C307.18 41.216 306.588 41.008 306.124 40.592C305.676 40.16 305.452 39.632 305.452 39.008C305.452 38.368 305.676 37.84 306.124 37.424C306.588 36.992 307.18 36.776 307.9 36.776C308.604 36.776 309.18 36.992 309.628 37.424C310.092 37.84 310.324 38.368 310.324 39.008C310.324 39.632 310.092 40.16 309.628 40.592C309.18 41.008 308.604 41.216 307.9 41.216ZM309.94 42.608V56H305.836V42.608H309.94ZM312.098 49.28C312.098 47.904 312.354 46.696 312.866 45.656C313.394 44.616 314.106 43.816 315.002 43.256C315.898 42.696 316.898 42.416 318.002 42.416C318.946 42.416 319.77 42.608 320.474 42.992C321.194 43.376 321.746 43.88 322.13 44.504V42.608H326.234V56H322.13V54.104C321.73 54.728 321.17 55.232 320.45 55.616C319.746 56 318.922 56.192 317.978 56.192C316.89 56.192 315.898 55.912 315.002 55.352C314.106 54.776 313.394 53.968 312.866 52.928C312.354 51.872 312.098 50.656 312.098 49.28ZM322.13 49.304C322.13 48.28 321.842 47.472 321.266 46.88C320.706 46.288 320.018 45.992 319.202 45.992C318.386 45.992 317.69 46.288 317.114 46.88C316.554 47.456 316.274 48.256 316.274 49.28C316.274 50.304 316.554 51.12 317.114 51.728C317.69 52.32 318.386 52.616 319.202 52.616C320.018 52.616 320.706 52.32 321.266 51.728C321.842 51.136 322.13 50.328 322.13 49.304ZM334.651 56.192C333.483 56.192 332.443 55.992 331.531 55.592C330.619 55.192 329.899 54.648 329.371 53.96C328.843 53.256 328.547 52.472 328.483 51.608H332.539C332.587 52.072 332.803 52.448 333.187 52.736C333.571 53.024 334.043 53.168 334.603 53.168C335.115 53.168 335.507 53.072 335.779 52.88C336.067 52.672 336.211 52.408 336.211 52.088C336.211 51.704 336.011 51.424 335.611 51.248C335.211 51.056 334.563 50.848 333.667 50.624C332.707 50.4 331.907 50.168 331.267 49.928C330.627 49.672 330.075 49.28 329.611 48.752C329.147 48.208 328.915 47.48 328.915 46.568C328.915 45.8 329.123 45.104 329.539 44.48C329.971 43.84 330.595 43.336 331.411 42.968C332.243 42.6 333.227 42.416 334.363 42.416C336.043 42.416 337.363 42.832 338.323 43.664C339.299 44.496 339.859 45.6 340.003 46.976H336.211C336.147 46.512 335.939 46.144 335.587 45.872C335.251 45.6 334.803 45.464 334.243 45.464C333.763 45.464 333.395 45.56 333.139 45.752C332.883 45.928 332.755 46.176 332.755 46.496C332.755 46.88 332.955 47.168 333.355 47.36C333.771 47.552 334.411 47.744 335.275 47.936C336.267 48.192 337.075 48.448 337.699 48.704C338.323 48.944 338.867 49.344 339.331 49.904C339.811 50.448 340.059 51.184 340.075 52.112C340.075 52.896 339.851 53.6 339.403 54.224C338.971 54.832 338.339 55.312 337.507 55.664C336.691 56.016 335.739 56.192 334.651 56.192ZM351.776 44.504C352.176 43.88 352.728 43.376 353.432 42.992C354.136 42.608 354.96 42.416 355.904 42.416C357.008 42.416 358.008 42.696 358.904 43.256C359.8 43.816 360.504 44.616 361.016 45.656C361.544 46.696 361.808 47.904 361.808 49.28C361.808 50.656 361.544 51.872 361.016 52.928C360.504 53.968 359.8 54.776 358.904 55.352C358.008 55.912 357.008 56.192 355.904 56.192C354.976 56.192 354.152 56 353.432 55.616C352.728 55.232 352.176 54.736 351.776 54.128V62.384H347.672V42.608H351.776V44.504ZM357.632 49.28C357.632 48.256 357.344 47.456 356.768 46.88C356.208 46.288 355.512 45.992 354.68 45.992C353.864 45.992 353.168 46.288 352.592 46.88C352.032 47.472 351.752 48.28 351.752 49.304C351.752 50.328 352.032 51.136 352.592 51.728C353.168 52.32 353.864 52.616 354.68 52.616C355.496 52.616 356.192 52.32 356.768 51.728C357.344 51.12 357.632 50.304 357.632 49.28ZM363.145 49.28C363.145 47.904 363.401 46.696 363.913 45.656C364.441 44.616 365.153 43.816 366.049 43.256C366.945 42.696 367.945 42.416 369.049 42.416C369.993 42.416 370.817 42.608 371.521 42.992C372.241 43.376 372.793 43.88 373.177 44.504V42.608H377.281V56H373.177V54.104C372.777 54.728 372.217 55.232 371.497 55.616C370.793 56 369.969 56.192 369.025 56.192C367.937 56.192 366.945 55.912 366.049 55.352C365.153 54.776 364.441 53.968 363.913 52.928C363.401 51.872 363.145 50.656 363.145 49.28ZM373.177 49.304C373.177 48.28 372.889 47.472 372.313 46.88C371.753 46.288 371.065 45.992 370.249 45.992C369.433 45.992 368.737 46.288 368.161 46.88C367.601 47.456 367.321 48.256 367.321 49.28C367.321 50.304 367.601 51.12 368.161 51.728C368.737 52.32 369.433 52.616 370.249 52.616C371.065 52.616 371.753 52.32 372.313 51.728C372.889 51.136 373.177 50.328 373.177 49.304ZM384.354 44.84C384.834 44.104 385.434 43.528 386.154 43.112C386.874 42.68 387.674 42.464 388.554 42.464V46.808H387.426C386.402 46.808 385.634 47.032 385.122 47.48C384.61 47.912 384.354 48.68 384.354 49.784V56H380.25V42.608H384.354V44.84ZM389.699 49.28C389.699 47.904 389.955 46.696 390.467 45.656C390.995 44.616 391.707 43.816 392.603 43.256C393.499 42.696 394.499 42.416 395.603 42.416C396.547 42.416 397.371 42.608 398.075 42.992C398.795 43.376 399.347 43.88 399.731 44.504V42.608H403.835V56H399.731V54.104C399.331 54.728 398.771 55.232 398.051 55.616C397.347 56 396.523 56.192 395.579 56.192C394.491 56.192 393.499 55.912 392.603 55.352C391.707 54.776 390.995 53.968 390.467 52.928C389.955 51.872 389.699 50.656 389.699 49.28ZM399.731 49.304C399.731 48.28 399.443 47.472 398.867 46.88C398.307 46.288 397.619 45.992 396.803 45.992C395.987 45.992 395.291 46.288 394.715 46.88C394.155 47.456 393.875 48.256 393.875 49.28C393.875 50.304 394.155 51.12 394.715 51.728C395.291 52.32 395.987 52.616 396.803 52.616C397.619 52.616 398.307 52.32 398.867 51.728C399.443 51.136 399.731 50.328 399.731 49.304ZM135.764 80.84C136.244 80.104 136.844 79.528 137.564 79.112C138.284 78.68 139.084 78.464 139.964 78.464V82.808H138.836C137.812 82.808 137.044 83.032 136.532 83.48C136.02 83.912 135.764 84.68 135.764 85.784V92H131.66V78.608H135.764V80.84ZM154.549 85.088C154.549 85.472 154.526 85.872 154.478 86.288H145.19C145.254 87.12 145.518 87.76 145.982 88.208C146.462 88.64 147.046 88.856 147.734 88.856C148.758 88.856 149.47 88.424 149.87 87.56H154.238C154.014 88.44 153.606 89.232 153.014 89.936C152.438 90.64 151.71 91.192 150.83 91.592C149.95 91.992 148.966 92.192 147.878 92.192C146.566 92.192 145.398 91.912 144.374 91.352C143.35 90.792 142.55 89.992 141.974 88.952C141.398 87.912 141.11 86.696 141.11 85.304C141.11 83.912 141.39 82.696 141.95 81.656C142.526 80.616 143.326 79.816 144.35 79.256C145.374 78.696 146.55 78.416 147.878 78.416C149.174 78.416 150.326 78.688 151.334 79.232C152.342 79.776 153.126 80.552 153.686 81.56C154.262 82.568 154.549 83.744 154.549 85.088ZM150.35 84.008C150.35 83.304 150.11 82.744 149.63 82.328C149.15 81.912 148.55 81.704 147.83 81.704C147.142 81.704 146.558 81.904 146.078 82.304C145.614 82.704 145.326 83.272 145.214 84.008H150.35ZM164.179 88.52V92H162.091C160.603 92 159.443 91.64 158.611 90.92C157.779 90.184 157.363 88.992 157.363 87.344V82.016H155.731V78.608H157.363V75.344H161.467V78.608H164.155V82.016H161.467V87.392C161.467 87.792 161.563 88.08 161.755 88.256C161.947 88.432 162.267 88.52 162.715 88.52H164.179ZM172.561 92.192C171.249 92.192 170.065 91.912 169.009 91.352C167.969 90.792 167.145 89.992 166.537 88.952C165.945 87.912 165.649 86.696 165.649 85.304C165.649 83.928 165.953 82.72 166.561 81.68C167.169 80.624 168.001 79.816 169.057 79.256C170.113 78.696 171.297 78.416 172.609 78.416C173.921 78.416 175.105 78.696 176.161 79.256C177.217 79.816 178.049 80.624 178.657 81.68C179.265 82.72 179.569 83.928 179.569 85.304C179.569 86.68 179.257 87.896 178.633 88.952C178.025 89.992 177.185 90.792 176.113 91.352C175.057 91.912 173.873 92.192 172.561 92.192ZM172.561 88.64C173.345 88.64 174.009 88.352 174.553 87.776C175.113 87.2 175.393 86.376 175.393 85.304C175.393 84.232 175.121 83.408 174.577 82.832C174.049 82.256 173.393 81.968 172.609 81.968C171.809 81.968 171.145 82.256 170.617 82.832C170.089 83.392 169.825 84.216 169.825 85.304C169.825 86.376 170.081 87.2 170.593 87.776C171.121 88.352 171.777 88.64 172.561 88.64ZM185.85 80.84C186.33 80.104 186.93 79.528 187.65 79.112C188.37 78.68 189.17 78.464 190.05 78.464V82.808H188.922C187.898 82.808 187.13 83.032 186.618 83.48C186.106 83.912 185.85 84.68 185.85 85.784V92H181.746V78.608H185.85V80.84ZM200.171 78.464C201.739 78.464 202.987 78.976 203.915 80C204.859 81.008 205.331 82.4 205.331 84.176V92H201.251V84.728C201.251 83.832 201.019 83.136 200.555 82.64C200.091 82.144 199.467 81.896 198.683 81.896C197.899 81.896 197.275 82.144 196.811 82.64C196.347 83.136 196.115 83.832 196.115 84.728V92H192.011V78.608H196.115V80.384C196.531 79.792 197.091 79.328 197.795 78.992C198.499 78.64 199.291 78.464 200.171 78.464ZM207.367 85.28C207.367 83.904 207.623 82.696 208.135 81.656C208.663 80.616 209.375 79.816 210.271 79.256C211.167 78.696 212.167 78.416 213.271 78.416C214.215 78.416 215.039 78.608 215.743 78.992C216.463 79.376 217.015 79.88 217.399 80.504V78.608H221.503V92H217.399V90.104C216.999 90.728 216.439 91.232 215.719 91.616C215.015 92 214.191 92.192 213.247 92.192C212.159 92.192 211.167 91.912 210.271 91.352C209.375 90.776 208.663 89.968 208.135 88.928C207.623 87.872 207.367 86.656 207.367 85.28ZM217.399 85.304C217.399 84.28 217.111 83.472 216.535 82.88C215.975 82.288 215.287 81.992 214.471 81.992C213.655 81.992 212.959 82.288 212.383 82.88C211.823 83.456 211.543 84.256 211.543 85.28C211.543 86.304 211.823 87.12 212.383 87.728C212.959 88.32 213.655 88.616 214.471 88.616C215.287 88.616 215.975 88.32 216.535 87.728C217.111 87.136 217.399 86.328 217.399 85.304ZM241.56 78.464C243.224 78.464 244.544 78.968 245.52 79.976C246.512 80.984 247.008 82.384 247.008 84.176V92H242.928V84.728C242.928 83.864 242.696 83.2 242.232 82.736C241.784 82.256 241.16 82.016 240.36 82.016C239.56 82.016 238.928 82.256 238.464 82.736C238.016 83.2 237.792 83.864 237.792 84.728V92H233.712V84.728C233.712 83.864 233.48 83.2 233.016 82.736C232.568 82.256 231.944 82.016 231.144 82.016C230.344 82.016 229.712 82.256 229.248 82.736C228.8 83.2 228.576 83.864 228.576 84.728V92H224.472V78.608H228.576V80.288C228.992 79.728 229.536 79.288 230.208 78.968C230.88 78.632 231.64 78.464 232.488 78.464C233.496 78.464 234.392 78.68 235.176 79.112C235.976 79.544 236.6 80.16 237.048 80.96C237.512 80.224 238.144 79.624 238.944 79.16C239.744 78.696 240.616 78.464 241.56 78.464ZM255.975 92.192C254.663 92.192 253.479 91.912 252.423 91.352C251.383 90.792 250.559 89.992 249.951 88.952C249.359 87.912 249.063 86.696 249.063 85.304C249.063 83.928 249.367 82.72 249.975 81.68C250.583 80.624 251.415 79.816 252.471 79.256C253.527 78.696 254.711 78.416 256.023 78.416C257.335 78.416 258.519 78.696 259.575 79.256C260.631 79.816 261.463 80.624 262.071 81.68C262.679 82.72 262.983 83.928 262.983 85.304C262.983 86.68 262.671 87.896 262.047 88.952C261.439 89.992 260.599 90.792 259.527 91.352C258.471 91.912 257.287 92.192 255.975 92.192ZM255.975 88.64C256.759 88.64 257.423 88.352 257.967 87.776C258.527 87.2 258.807 86.376 258.807 85.304C258.807 84.232 258.535 83.408 257.991 82.832C257.463 82.256 256.807 81.968 256.023 81.968C255.223 81.968 254.559 82.256 254.031 82.832C253.503 83.392 253.239 84.216 253.239 85.304C253.239 86.376 253.495 87.2 254.007 87.776C254.535 88.352 255.191 88.64 255.975 88.64ZM270.608 92.192C269.44 92.192 268.4 91.992 267.488 91.592C266.576 91.192 265.856 90.648 265.328 89.96C264.8 89.256 264.504 88.472 264.44 87.608H268.496C268.544 88.072 268.76 88.448 269.144 88.736C269.528 89.024 270 89.168 270.56 89.168C271.072 89.168 271.464 89.072 271.736 88.88C272.024 88.672 272.168 88.408 272.168 88.088C272.168 87.704 271.968 87.424 271.568 87.248C271.168 87.056 270.52 86.848 269.624 86.624C268.664 86.4 267.864 86.168 267.224 85.928C266.584 85.672 266.032 85.28 265.568 84.752C265.104 84.208 264.872 83.48 264.872 82.568C264.872 81.8 265.08 81.104 265.496 80.48C265.928 79.84 266.552 79.336 267.368 78.968C268.2 78.6 269.184 78.416 270.32 78.416C272 78.416 273.32 78.832 274.28 79.664C275.256 80.496 275.816 81.6 275.96 82.976H272.168C272.104 82.512 271.896 82.144 271.544 81.872C271.208 81.6 270.76 81.464 270.2 81.464C269.72 81.464 269.352 81.56 269.096 81.752C268.84 81.928 268.712 82.176 268.712 82.496C268.712 82.88 268.912 83.168 269.312 83.36C269.728 83.552 270.368 83.744 271.232 83.936C272.224 84.192 273.032 84.448 273.656 84.704C274.28 84.944 274.824 85.344 275.288 85.904C275.768 86.448 276.016 87.184 276.032 88.112C276.032 88.896 275.808 89.6 275.36 90.224C274.928 90.832 274.296 91.312 273.464 91.664C272.648 92.016 271.696 92.192 270.608 92.192ZM280.463 92.192C279.743 92.192 279.151 91.984 278.687 91.568C278.239 91.136 278.015 90.608 278.015 89.984C278.015 89.344 278.239 88.808 278.687 88.376C279.151 87.944 279.743 87.728 280.463 87.728C281.167 87.728 281.743 87.944 282.191 88.376C282.655 88.808 282.887 89.344 282.887 89.984C282.887 90.608 282.655 91.136 282.191 91.568C281.743 91.984 281.167 92.192 280.463 92.192ZM12.5268 197.024H6.23878L5.23078 200H0.934781L7.03078 183.152H11.7828L17.8788 200H13.5348L12.5268 197.024ZM11.4708 193.856L9.38278 187.688L7.31878 193.856H11.4708ZM24.8221 186.416C25.7661 186.416 26.5901 186.608 27.2941 186.992C28.0141 187.376 28.5661 187.88 28.9501 188.504V186.608H33.0541V199.976C33.0541 201.208 32.8061 202.32 32.3101 203.312C31.8301 204.32 31.0861 205.12 30.0781 205.712C29.0861 206.304 27.8461 206.6 26.3581 206.6C24.3741 206.6 22.7661 206.128 21.5341 205.184C20.3021 204.256 19.5981 202.992 19.4221 201.392H23.4781C23.6061 201.904 23.9101 202.304 24.3901 202.592C24.8701 202.896 25.4621 203.048 26.1661 203.048C27.0141 203.048 27.6861 202.8 28.1821 202.304C28.6941 201.824 28.9501 201.048 28.9501 199.976V198.08C28.5501 198.704 27.9981 199.216 27.2941 199.616C26.5901 200 25.7661 200.192 24.8221 200.192C23.7181 200.192 22.7181 199.912 21.8221 199.352C20.9261 198.776 20.2141 197.968 19.6861 196.928C19.1741 195.872 18.9181 194.656 18.9181 193.28C18.9181 191.904 19.1741 190.696 19.6861 189.656C20.2141 188.616 20.9261 187.816 21.8221 187.256C22.7181 186.696 23.7181 186.416 24.8221 186.416ZM28.9501 193.304C28.9501 192.28 28.6621 191.472 28.0861 190.88C27.5261 190.288 26.8381 189.992 26.0221 189.992C25.2061 189.992 24.5101 190.288 23.9341 190.88C23.3741 191.456 23.0941 192.256 23.0941 193.28C23.0941 194.304 23.3741 195.12 23.9341 195.728C24.5101 196.32 25.2061 196.616 26.0221 196.616C26.8381 196.616 27.5261 196.32 28.0861 195.728C28.6621 195.136 28.9501 194.328 28.9501 193.304ZM40.1272 188.84C40.6072 188.104 41.2072 187.528 41.9272 187.112C42.6472 186.68 43.4472 186.464 44.3272 186.464V190.808H43.1992C42.1752 190.808 41.4072 191.032 40.8952 191.48C40.3832 191.912 40.1272 192.68 40.1272 193.784V200H36.0232V186.608H40.1272V188.84ZM45.4728 193.28C45.4728 191.904 45.7288 190.696 46.2408 189.656C46.7688 188.616 47.4808 187.816 48.3768 187.256C49.2728 186.696 50.2728 186.416 51.3768 186.416C52.3208 186.416 53.1448 186.608 53.8488 186.992C54.5688 187.376 55.1208 187.88 55.5048 188.504V186.608H59.6088V200H55.5048V198.104C55.1048 198.728 54.5448 199.232 53.8248 199.616C53.1208 200 52.2968 200.192 51.3528 200.192C50.2648 200.192 49.2728 199.912 48.3768 199.352C47.4808 198.776 46.7688 197.968 46.2408 196.928C45.7288 195.872 45.4728 194.656 45.4728 193.28ZM55.5048 193.304C55.5048 192.28 55.2168 191.472 54.6408 190.88C54.0808 190.288 53.3928 189.992 52.5768 189.992C51.7608 189.992 51.0648 190.288 50.4888 190.88C49.9288 191.456 49.6488 192.256 49.6488 193.28C49.6488 194.304 49.9288 195.12 50.4888 195.728C51.0648 196.32 51.7608 196.616 52.5768 196.616C53.3928 196.616 54.0808 196.32 54.6408 195.728C55.2168 195.136 55.5048 194.328 55.5048 193.304ZM61.7618 193.28C61.7618 191.904 62.0178 190.696 62.5298 189.656C63.0578 188.616 63.7698 187.816 64.6658 187.256C65.5618 186.696 66.5618 186.416 67.6658 186.416C68.5458 186.416 69.3458 186.6 70.0658 186.968C70.8018 187.336 71.3778 187.832 71.7938 188.456V182.24H75.8978V200H71.7938V198.08C71.4098 198.72 70.8578 199.232 70.1378 199.616C69.4338 200 68.6098 200.192 67.6658 200.192C66.5618 200.192 65.5618 199.912 64.6658 199.352C63.7698 198.776 63.0578 197.968 62.5298 196.928C62.0178 195.872 61.7618 194.656 61.7618 193.28ZM71.7938 193.304C71.7938 192.28 71.5058 191.472 70.9298 190.88C70.3698 190.288 69.6818 189.992 68.8658 189.992C68.0498 189.992 67.3538 190.288 66.7778 190.88C66.2178 191.456 65.9378 192.256 65.9378 193.28C65.9378 194.304 66.2178 195.12 66.7778 195.728C67.3538 196.32 68.0498 196.616 68.8658 196.616C69.6818 196.616 70.3698 196.32 70.9298 195.728C71.5058 195.136 71.7938 194.328 71.7938 193.304ZM91.4909 193.088C91.4909 193.472 91.4669 193.872 91.4189 194.288H82.1309C82.1949 195.12 82.4589 195.76 82.9229 196.208C83.4029 196.64 83.9869 196.856 84.6749 196.856C85.6989 196.856 86.4109 196.424 86.8109 195.56H91.1789C90.9549 196.44 90.5469 197.232 89.9549 197.936C89.3789 198.64 88.6509 199.192 87.7709 199.592C86.8909 199.992 85.9069 200.192 84.8189 200.192C83.5069 200.192 82.3389 199.912 81.3149 199.352C80.2909 198.792 79.4909 197.992 78.9149 196.952C78.3389 195.912 78.0509 194.696 78.0509 193.304C78.0509 191.912 78.3309 190.696 78.8909 189.656C79.4669 188.616 80.2669 187.816 81.2909 187.256C82.3149 186.696 83.4909 186.416 84.8189 186.416C86.1149 186.416 87.2669 186.688 88.2749 187.232C89.2829 187.776 90.0669 188.552 90.6269 189.56C91.2029 190.568 91.4909 191.744 91.4909 193.088ZM87.2909 192.008C87.2909 191.304 87.0509 190.744 86.5709 190.328C86.0909 189.912 85.4909 189.704 84.7709 189.704C84.0829 189.704 83.4989 189.904 83.0189 190.304C82.5549 190.704 82.2669 191.272 82.1549 192.008H87.2909ZM92.84 193.304C92.84 191.912 93.12 190.696 93.68 189.656C94.256 188.616 95.048 187.816 96.056 187.256C97.08 186.696 98.248 186.416 99.56 186.416C101.24 186.416 102.64 186.856 103.76 187.736C104.896 188.616 105.64 189.856 105.992 191.456H101.624C101.256 190.432 100.544 189.92 99.488 189.92C98.736 189.92 98.136 190.216 97.688 190.808C97.24 191.384 97.016 192.216 97.016 193.304C97.016 194.392 97.24 195.232 97.688 195.824C98.136 196.4 98.736 196.688 99.488 196.688C100.544 196.688 101.256 196.176 101.624 195.152H105.992C105.64 196.72 104.896 197.952 103.76 198.848C102.624 199.744 101.224 200.192 99.56 200.192C98.248 200.192 97.08 199.912 96.056 199.352C95.048 198.792 94.256 197.992 93.68 196.952C93.12 195.912 92.84 194.696 92.84 193.304ZM120.811 193.088C120.811 193.472 120.787 193.872 120.739 194.288H111.451C111.515 195.12 111.779 195.76 112.243 196.208C112.723 196.64 113.307 196.856 113.995 196.856C115.019 196.856 115.731 196.424 116.131 195.56H120.499C120.275 196.44 119.867 197.232 119.275 197.936C118.699 198.64 117.971 199.192 117.091 199.592C116.211 199.992 115.227 200.192 114.139 200.192C112.827 200.192 111.659 199.912 110.635 199.352C109.611 198.792 108.811 197.992 108.235 196.952C107.659 195.912 107.371 194.696 107.371 193.304C107.371 191.912 107.651 190.696 108.211 189.656C108.787 188.616 109.587 187.816 110.611 187.256C111.635 186.696 112.811 186.416 114.139 186.416C115.435 186.416 116.587 186.688 117.595 187.232C118.603 187.776 119.387 188.552 119.947 189.56C120.523 190.568 120.811 191.744 120.811 193.088ZM116.611 192.008C116.611 191.304 116.371 190.744 115.891 190.328C115.411 189.912 114.811 189.704 114.091 189.704C113.403 189.704 112.819 189.904 112.339 190.304C111.875 190.704 111.587 191.272 111.475 192.008H116.611ZM140.064 186.464C141.728 186.464 143.048 186.968 144.024 187.976C145.016 188.984 145.512 190.384 145.512 192.176V200H141.432V192.728C141.432 191.864 141.2 191.2 140.736 190.736C140.288 190.256 139.664 190.016 138.864 190.016C138.064 190.016 137.432 190.256 136.968 190.736C136.52 191.2 136.296 191.864 136.296 192.728V200H132.216V192.728C132.216 191.864 131.984 191.2 131.52 190.736C131.072 190.256 130.448 190.016 129.648 190.016C128.848 190.016 128.216 190.256 127.752 190.736C127.304 191.2 127.08 191.864 127.08 192.728V200H122.976V186.608H127.08V188.288C127.496 187.728 128.04 187.288 128.712 186.968C129.384 186.632 130.144 186.464 130.992 186.464C132 186.464 132.896 186.68 133.68 187.112C134.48 187.544 135.104 188.16 135.552 188.96C136.016 188.224 136.648 187.624 137.448 187.16C138.248 186.696 139.12 186.464 140.064 186.464ZM154.479 200.192C153.167 200.192 151.983 199.912 150.927 199.352C149.887 198.792 149.063 197.992 148.455 196.952C147.863 195.912 147.567 194.696 147.567 193.304C147.567 191.928 147.871 190.72 148.479 189.68C149.087 188.624 149.919 187.816 150.975 187.256C152.031 186.696 153.215 186.416 154.527 186.416C155.839 186.416 157.023 186.696 158.079 187.256C159.135 187.816 159.967 188.624 160.575 189.68C161.183 190.72 161.487 191.928 161.487 193.304C161.487 194.68 161.175 195.896 160.551 196.952C159.943 197.992 159.103 198.792 158.031 199.352C156.975 199.912 155.791 200.192 154.479 200.192ZM154.479 196.64C155.263 196.64 155.927 196.352 156.471 195.776C157.031 195.2 157.311 194.376 157.311 193.304C157.311 192.232 157.039 191.408 156.495 190.832C155.967 190.256 155.311 189.968 154.527 189.968C153.727 189.968 153.063 190.256 152.535 190.832C152.007 191.392 151.743 192.216 151.743 193.304C151.743 194.376 151.999 195.2 152.511 195.776C153.039 196.352 153.695 196.64 154.479 196.64ZM169.112 200.192C167.944 200.192 166.904 199.992 165.992 199.592C165.08 199.192 164.36 198.648 163.832 197.96C163.304 197.256 163.008 196.472 162.944 195.608H167C167.048 196.072 167.264 196.448 167.648 196.736C168.032 197.024 168.504 197.168 169.064 197.168C169.576 197.168 169.968 197.072 170.24 196.88C170.528 196.672 170.672 196.408 170.672 196.088C170.672 195.704 170.472 195.424 170.072 195.248C169.672 195.056 169.024 194.848 168.128 194.624C167.168 194.4 166.368 194.168 165.728 193.928C165.088 193.672 164.536 193.28 164.072 192.752C163.608 192.208 163.376 191.48 163.376 190.568C163.376 189.8 163.584 189.104 164 188.48C164.432 187.84 165.056 187.336 165.872 186.968C166.704 186.6 167.688 186.416 168.824 186.416C170.504 186.416 171.824 186.832 172.784 187.664C173.76 188.496 174.32 189.6 174.464 190.976H170.672C170.608 190.512 170.4 190.144 170.048 189.872C169.712 189.6 169.264 189.464 168.704 189.464C168.224 189.464 167.856 189.56 167.6 189.752C167.344 189.928 167.216 190.176 167.216 190.496C167.216 190.88 167.416 191.168 167.816 191.36C168.232 191.552 168.872 191.744 169.736 191.936C170.728 192.192 171.536 192.448 172.16 192.704C172.784 192.944 173.328 193.344 173.792 193.904C174.272 194.448 174.52 195.184 174.536 196.112C174.536 196.896 174.312 197.6 173.864 198.224C173.432 198.832 172.8 199.312 171.968 199.664C171.152 200.016 170.2 200.192 169.112 200.192ZM187.581 200.192C186.413 200.192 185.373 199.992 184.461 199.592C183.549 199.192 182.829 198.648 182.301 197.96C181.773 197.256 181.477 196.472 181.413 195.608H185.469C185.517 196.072 185.733 196.448 186.117 196.736C186.501 197.024 186.973 197.168 187.533 197.168C188.045 197.168 188.437 197.072 188.709 196.88C188.997 196.672 189.141 196.408 189.141 196.088C189.141 195.704 188.941 195.424 188.541 195.248C188.141 195.056 187.493 194.848 186.597 194.624C185.637 194.4 184.837 194.168 184.197 193.928C183.557 193.672 183.005 193.28 182.541 192.752C182.077 192.208 181.845 191.48 181.845 190.568C181.845 189.8 182.053 189.104 182.469 188.48C182.901 187.84 183.525 187.336 184.341 186.968C185.173 186.6 186.157 186.416 187.293 186.416C188.973 186.416 190.293 186.832 191.253 187.664C192.229 188.496 192.789 189.6 192.933 190.976H189.141C189.077 190.512 188.869 190.144 188.517 189.872C188.181 189.6 187.733 189.464 187.173 189.464C186.693 189.464 186.325 189.56 186.069 189.752C185.813 189.928 185.685 190.176 185.685 190.496C185.685 190.88 185.885 191.168 186.285 191.36C186.701 191.552 187.341 191.744 188.205 191.936C189.197 192.192 190.005 192.448 190.629 192.704C191.253 192.944 191.797 193.344 192.261 193.904C192.741 194.448 192.989 195.184 193.005 196.112C193.005 196.896 192.781 197.6 192.333 198.224C191.901 198.832 191.269 199.312 190.437 199.664C189.621 200.016 188.669 200.192 187.581 200.192ZM208.739 186.608V200H204.635V198.176C204.219 198.768 203.651 199.248 202.931 199.616C202.227 199.968 201.443 200.144 200.579 200.144C199.555 200.144 198.651 199.92 197.867 199.472C197.083 199.008 196.475 198.344 196.043 197.48C195.611 196.616 195.395 195.6 195.395 194.432V186.608H199.475V193.88C199.475 194.776 199.707 195.472 200.171 195.968C200.635 196.464 201.259 196.712 202.043 196.712C202.843 196.712 203.475 196.464 203.939 195.968C204.403 195.472 204.635 194.776 204.635 193.88V186.608H208.739ZM210.871 193.28C210.871 191.904 211.127 190.696 211.639 189.656C212.167 188.616 212.879 187.816 213.775 187.256C214.671 186.696 215.671 186.416 216.775 186.416C217.719 186.416 218.543 186.608 219.247 186.992C219.967 187.376 220.519 187.88 220.903 188.504V186.608H225.007V200H220.903V198.104C220.503 198.728 219.943 199.232 219.223 199.616C218.519 200 217.695 200.192 216.751 200.192C215.663 200.192 214.671 199.912 213.775 199.352C212.879 198.776 212.167 197.968 211.639 196.928C211.127 195.872 210.871 194.656 210.871 193.28ZM220.903 193.304C220.903 192.28 220.615 191.472 220.039 190.88C219.479 190.288 218.791 189.992 217.975 189.992C217.159 189.992 216.463 190.288 215.887 190.88C215.327 191.456 215.047 192.256 215.047 193.28C215.047 194.304 215.327 195.12 215.887 195.728C216.463 196.32 217.159 196.616 217.975 196.616C218.791 196.616 219.479 196.32 220.039 195.728C220.615 195.136 220.903 194.328 220.903 193.304ZM232.246 193.304C232.246 191.912 232.526 190.696 233.086 189.656C233.662 188.616 234.454 187.816 235.462 187.256C236.486 186.696 237.654 186.416 238.966 186.416C240.646 186.416 242.046 186.856 243.166 187.736C244.302 188.616 245.046 189.856 245.398 191.456H241.03C240.662 190.432 239.95 189.92 238.894 189.92C238.142 189.92 237.542 190.216 237.094 190.808C236.646 191.384 236.422 192.216 236.422 193.304C236.422 194.392 236.646 195.232 237.094 195.824C237.542 196.4 238.142 196.688 238.894 196.688C239.95 196.688 240.662 196.176 241.03 195.152H245.398C245.046 196.72 244.302 197.952 243.166 198.848C242.03 199.744 240.63 200.192 238.966 200.192C237.654 200.192 236.486 199.912 235.462 199.352C234.454 198.792 233.662 197.992 233.086 196.952C232.526 195.912 232.246 194.696 232.246 193.304ZM253.689 200.192C252.377 200.192 251.193 199.912 250.137 199.352C249.097 198.792 248.273 197.992 247.665 196.952C247.073 195.912 246.777 194.696 246.777 193.304C246.777 191.928 247.081 190.72 247.689 189.68C248.297 188.624 249.129 187.816 250.185 187.256C251.241 186.696 252.425 186.416 253.737 186.416C255.049 186.416 256.233 186.696 257.289 187.256C258.345 187.816 259.177 188.624 259.785 189.68C260.393 190.72 260.697 191.928 260.697 193.304C260.697 194.68 260.385 195.896 259.761 196.952C259.153 197.992 258.313 198.792 257.241 199.352C256.185 199.912 255.001 200.192 253.689 200.192ZM253.689 196.64C254.473 196.64 255.137 196.352 255.681 195.776C256.241 195.2 256.521 194.376 256.521 193.304C256.521 192.232 256.249 191.408 255.705 190.832C255.177 190.256 254.521 189.968 253.737 189.968C252.937 189.968 252.273 190.256 251.745 190.832C251.217 191.392 250.953 192.216 250.953 193.304C250.953 194.376 251.209 195.2 251.721 195.776C252.249 196.352 252.905 196.64 253.689 196.64ZM279.963 186.464C281.627 186.464 282.947 186.968 283.923 187.976C284.915 188.984 285.411 190.384 285.411 192.176V200H281.331V192.728C281.331 191.864 281.099 191.2 280.635 190.736C280.187 190.256 279.563 190.016 278.763 190.016C277.963 190.016 277.331 190.256 276.867 190.736C276.419 191.2 276.195 191.864 276.195 192.728V200H272.115V192.728C272.115 191.864 271.883 191.2 271.419 190.736C270.971 190.256 270.347 190.016 269.547 190.016C268.747 190.016 268.115 190.256 267.651 190.736C267.203 191.2 266.979 191.864 266.979 192.728V200H262.875V186.608H266.979V188.288C267.395 187.728 267.939 187.288 268.611 186.968C269.283 186.632 270.043 186.464 270.891 186.464C271.899 186.464 272.795 186.68 273.579 187.112C274.379 187.544 275.003 188.16 275.451 188.96C275.915 188.224 276.547 187.624 277.347 187.16C278.147 186.696 279.019 186.464 279.963 186.464ZM292.385 188.504C292.785 187.88 293.337 187.376 294.041 186.992C294.745 186.608 295.569 186.416 296.513 186.416C297.617 186.416 298.617 186.696 299.513 187.256C300.409 187.816 301.113 188.616 301.625 189.656C302.153 190.696 302.417 191.904 302.417 193.28C302.417 194.656 302.153 195.872 301.625 196.928C301.113 197.968 300.409 198.776 299.513 199.352C298.617 199.912 297.617 200.192 296.513 200.192C295.585 200.192 294.761 200 294.041 199.616C293.337 199.232 292.785 198.736 292.385 198.128V206.384H288.281V186.608H292.385V188.504ZM298.241 193.28C298.241 192.256 297.953 191.456 297.377 190.88C296.817 190.288 296.121 189.992 295.289 189.992C294.473 189.992 293.777 190.288 293.201 190.88C292.641 191.472 292.361 192.28 292.361 193.304C292.361 194.328 292.641 195.136 293.201 195.728C293.777 196.32 294.473 196.616 295.289 196.616C296.105 196.616 296.801 196.32 297.377 195.728C297.953 195.12 298.241 194.304 298.241 193.28ZM308.674 188.84C309.154 188.104 309.754 187.528 310.474 187.112C311.194 186.68 311.994 186.464 312.874 186.464V190.808H311.746C310.722 190.808 309.954 191.032 309.442 191.48C308.93 191.912 308.674 192.68 308.674 193.784V200H304.57V186.608H308.674V188.84ZM327.46 193.088C327.46 193.472 327.436 193.872 327.388 194.288H318.1C318.164 195.12 318.428 195.76 318.892 196.208C319.372 196.64 319.956 196.856 320.644 196.856C321.668 196.856 322.38 196.424 322.78 195.56H327.148C326.924 196.44 326.516 197.232 325.924 197.936C325.348 198.64 324.62 199.192 323.74 199.592C322.86 199.992 321.876 200.192 320.788 200.192C319.476 200.192 318.308 199.912 317.284 199.352C316.26 198.792 315.46 197.992 314.884 196.952C314.308 195.912 314.02 194.696 314.02 193.304C314.02 191.912 314.3 190.696 314.86 189.656C315.436 188.616 316.236 187.816 317.26 187.256C318.284 186.696 319.46 186.416 320.788 186.416C322.084 186.416 323.236 186.688 324.244 187.232C325.252 187.776 326.036 188.552 326.596 189.56C327.172 190.568 327.46 191.744 327.46 193.088ZM323.26 192.008C323.26 191.304 323.02 190.744 322.54 190.328C322.06 189.912 321.46 189.704 320.74 189.704C320.052 189.704 319.468 189.904 318.988 190.304C318.524 190.704 318.236 191.272 318.124 192.008H323.26ZM342.249 193.088C342.249 193.472 342.225 193.872 342.177 194.288H332.889C332.953 195.12 333.217 195.76 333.681 196.208C334.161 196.64 334.745 196.856 335.433 196.856C336.457 196.856 337.169 196.424 337.569 195.56H341.937C341.713 196.44 341.305 197.232 340.713 197.936C340.137 198.64 339.409 199.192 338.529 199.592C337.649 199.992 336.665 200.192 335.577 200.192C334.265 200.192 333.097 199.912 332.073 199.352C331.049 198.792 330.249 197.992 329.673 196.952C329.097 195.912 328.809 194.696 328.809 193.304C328.809 191.912 329.089 190.696 329.649 189.656C330.225 188.616 331.025 187.816 332.049 187.256C333.073 186.696 334.249 186.416 335.577 186.416C336.873 186.416 338.025 186.688 339.033 187.232C340.041 187.776 340.825 188.552 341.385 189.56C341.961 190.568 342.249 191.744 342.249 193.088ZM338.049 192.008C338.049 191.304 337.809 190.744 337.329 190.328C336.849 189.912 336.249 189.704 335.529 189.704C334.841 189.704 334.257 189.904 333.777 190.304C333.313 190.704 333.025 191.272 332.913 192.008H338.049ZM352.574 186.464C354.142 186.464 355.39 186.976 356.318 188C357.262 189.008 357.734 190.4 357.734 192.176V200H353.654V192.728C353.654 191.832 353.422 191.136 352.958 190.64C352.494 190.144 351.87 189.896 351.086 189.896C350.302 189.896 349.678 190.144 349.214 190.64C348.75 191.136 348.518 191.832 348.518 192.728V200H344.414V186.608H348.518V188.384C348.934 187.792 349.494 187.328 350.198 186.992C350.902 186.64 351.694 186.464 352.574 186.464ZM366.034 200.192C364.866 200.192 363.826 199.992 362.914 199.592C362.002 199.192 361.282 198.648 360.754 197.96C360.226 197.256 359.93 196.472 359.866 195.608H363.922C363.97 196.072 364.186 196.448 364.57 196.736C364.954 197.024 365.426 197.168 365.986 197.168C366.498 197.168 366.89 197.072 367.162 196.88C367.45 196.672 367.594 196.408 367.594 196.088C367.594 195.704 367.394 195.424 366.994 195.248C366.594 195.056 365.946 194.848 365.05 194.624C364.09 194.4 363.29 194.168 362.65 193.928C362.01 193.672 361.458 193.28 360.994 192.752C360.53 192.208 360.298 191.48 360.298 190.568C360.298 189.8 360.506 189.104 360.922 188.48C361.354 187.84 361.978 187.336 362.794 186.968C363.626 186.6 364.61 186.416 365.746 186.416C367.426 186.416 368.746 186.832 369.706 187.664C370.682 188.496 371.242 189.6 371.386 190.976H367.594C367.53 190.512 367.322 190.144 366.97 189.872C366.634 189.6 366.186 189.464 365.626 189.464C365.146 189.464 364.778 189.56 364.522 189.752C364.266 189.928 364.138 190.176 364.138 190.496C364.138 190.88 364.338 191.168 364.738 191.36C365.154 191.552 365.794 191.744 366.658 191.936C367.65 192.192 368.458 192.448 369.082 192.704C369.706 192.944 370.25 193.344 370.714 193.904C371.194 194.448 371.442 195.184 371.458 196.112C371.458 196.896 371.234 197.6 370.786 198.224C370.354 198.832 369.722 199.312 368.89 199.664C368.074 200.016 367.122 200.192 366.034 200.192ZM373.152 193.28C373.152 191.904 373.408 190.696 373.92 189.656C374.448 188.616 375.16 187.816 376.056 187.256C376.952 186.696 377.952 186.416 379.056 186.416C380 186.416 380.824 186.608 381.528 186.992C382.248 187.376 382.8 187.88 383.184 188.504V186.608H387.288V200H383.184V198.104C382.784 198.728 382.224 199.232 381.504 199.616C380.8 200 379.976 200.192 379.032 200.192C377.944 200.192 376.952 199.912 376.056 199.352C375.16 198.776 374.448 197.968 373.92 196.928C373.408 195.872 373.152 194.656 373.152 193.28ZM383.184 193.304C383.184 192.28 382.896 191.472 382.32 190.88C381.76 190.288 381.072 189.992 380.256 189.992C379.44 189.992 378.744 190.288 378.168 190.88C377.608 191.456 377.328 192.256 377.328 193.28C377.328 194.304 377.608 195.12 378.168 195.728C378.744 196.32 379.44 196.616 380.256 196.616C381.072 196.616 381.76 196.32 382.32 195.728C382.896 195.136 383.184 194.328 383.184 193.304ZM375.912 185.48C376.296 183.112 377.4 181.928 379.224 181.928C379.576 181.928 379.88 181.984 380.136 182.096C380.408 182.192 380.736 182.344 381.12 182.552C381.408 182.712 381.64 182.832 381.816 182.912C381.992 182.976 382.176 183.008 382.368 183.008C382.96 183.008 383.304 182.648 383.4 181.928H385.512C385.128 184.296 384.024 185.48 382.2 185.48C381.848 185.48 381.536 185.432 381.264 185.336C381.008 185.224 380.688 185.064 380.304 184.856C380.016 184.696 379.784 184.584 379.608 184.52C379.432 184.44 379.248 184.4 379.056 184.4C378.464 184.4 378.112 184.76 378 185.48H375.912ZM396.354 200.192C395.042 200.192 393.858 199.912 392.802 199.352C391.762 198.792 390.938 197.992 390.33 196.952C389.738 195.912 389.442 194.696 389.442 193.304C389.442 191.928 389.746 190.72 390.354 189.68C390.962 188.624 391.794 187.816 392.85 187.256C393.906 186.696 395.09 186.416 396.402 186.416C397.714 186.416 398.898 186.696 399.954 187.256C401.01 187.816 401.842 188.624 402.45 189.68C403.058 190.72 403.362 191.928 403.362 193.304C403.362 194.68 403.05 195.896 402.426 196.952C401.818 197.992 400.978 198.792 399.906 199.352C398.85 199.912 397.666 200.192 396.354 200.192ZM396.354 196.64C397.138 196.64 397.802 196.352 398.346 195.776C398.906 195.2 399.186 194.376 399.186 193.304C399.186 192.232 398.914 191.408 398.37 190.832C397.842 190.256 397.186 189.968 396.402 189.968C395.602 189.968 394.938 190.256 394.41 190.832C393.882 191.392 393.618 192.216 393.618 193.304C393.618 194.376 393.874 195.2 394.386 195.776C394.914 196.352 395.57 196.64 396.354 196.64ZM410.939 182.552L410.459 194.048H406.979L406.499 182.552H410.939ZM408.779 200.192C408.059 200.192 407.467 199.984 407.003 199.568C406.555 199.136 406.331 198.608 406.331 197.984C406.331 197.344 406.555 196.808 407.003 196.376C407.467 195.944 408.059 195.728 408.779 195.728C409.483 195.728 410.059 195.944 410.507 196.376C410.971 196.808 411.203 197.344 411.203 197.984C411.203 198.608 410.971 199.136 410.507 199.568C410.059 199.984 409.483 200.192 408.779 200.192Z" fill="black"/>
</svg>
