<svg width="20" height="20" viewBox="0 0 20 20" fill="none" xmlns="http://www.w3.org/2000/svg">
<path d="M3.86777 12H11.6033V10H3.86777V12ZM3.86777 9H15.4711V7H3.86777V9ZM3.86777 6H15.4711V4H3.86777V6ZM0 20V2C0 1.45 0.189359 0.979167 0.568078 0.5875C0.946797 0.195833 1.40207 0 1.93388 0H17.405C17.9368 0 18.392 0.195833 18.7708 0.5875C19.1495 0.979167 19.3388 1.45 19.3388 2V14C19.3388 14.55 19.1495 15.0208 18.7708 15.4125C18.392 15.8042 17.9368 16 17.405 16H3.86777L0 20ZM3.04587 14H17.405V2H1.93388V15.125L3.04587 14Z" fill="#404040"/>
</svg>
