<svg width="45" height="43" viewBox="0 0 45 43" fill="none" xmlns="http://www.w3.org/2000/svg">
<ellipse cx="22.5" cy="21.5" rx="22.5" ry="21.5" fill="white"/>
<path d="M18.25 25.1562C17.6958 25.1562 17.2274 24.9599 16.8448 24.5672C16.4621 24.1745 16.2708 23.6937 16.2708 23.125C16.2708 22.5562 16.4621 22.0755 16.8448 21.6828C17.2274 21.2901 17.6958 21.0937 18.25 21.0937C18.8042 21.0937 19.2726 21.2901 19.6552 21.6828C20.0378 22.0755 20.2292 22.5562 20.2292 23.125C20.2292 23.6937 20.0378 24.1745 19.6552 24.5672C19.2726 24.9599 18.8042 25.1562 18.25 25.1562ZM27.75 25.1562C27.1958 25.1562 26.7274 24.9599 26.3448 24.5672C25.9621 24.1745 25.7708 23.6937 25.7708 23.125C25.7708 22.5562 25.9621 22.0755 26.3448 21.6828C26.7274 21.2901 27.1958 21.0937 27.75 21.0937C28.3042 21.0937 28.7726 21.2901 29.1552 21.6828C29.5378 22.0755 29.7292 22.5562 29.7292 23.125C29.7292 23.6937 29.5378 24.1745 29.1552 24.5672C28.7726 24.9599 28.3042 25.1562 27.75 25.1562ZM23 34.5C26.5361 34.5 29.5312 33.2406 31.9854 30.7219C34.4396 28.2031 35.6667 25.1292 35.6667 21.5C35.6667 20.85 35.6271 20.2203 35.5479 19.6109C35.4687 19.0016 35.3236 18.4125 35.1125 17.8438C34.5583 17.9792 34.0042 18.0807 33.45 18.1484C32.8958 18.2161 32.3153 18.25 31.7083 18.25C29.3069 18.25 27.0375 17.7219 24.9 16.6656C22.7625 15.6094 20.9417 14.1333 19.4375 12.2375C18.593 14.35 17.3858 16.1849 15.8156 17.7422C14.2455 19.2995 12.418 20.4708 10.3333 21.2562V21.5C10.3333 25.1292 11.5604 28.2031 14.0146 30.7219C16.4687 33.2406 19.4639 34.5 23 34.5ZM23 37.75C20.8097 37.75 18.7514 37.3234 16.825 36.4703C14.8986 35.6172 13.2229 34.4594 11.7979 32.9969C10.3729 31.5344 9.24478 29.8146 8.41353 27.8375C7.58228 25.8604 7.16666 23.7479 7.16666 21.5C7.16666 19.2521 7.58228 17.1396 8.41353 15.1625C9.24478 13.1854 10.3729 11.4656 11.7979 10.0031C13.2229 8.54062 14.8986 7.38281 16.825 6.52969C18.7514 5.67656 20.8097 5.25 23 5.25C25.1903 5.25 27.2486 5.67656 29.175 6.52969C31.1014 7.38281 32.7771 8.54062 34.2021 10.0031C35.6271 11.4656 36.7552 13.1854 37.5864 15.1625C38.4177 17.1396 38.8333 19.2521 38.8333 21.5C38.8333 23.7479 38.4177 25.8604 37.5864 27.8375C36.7552 29.8146 35.6271 31.5344 34.2021 32.9969C32.7771 34.4594 31.1014 35.6172 29.175 36.4703C27.2486 37.3234 25.1903 37.75 23 37.75ZM20.8625 8.70312C21.9708 10.599 23.475 12.1224 25.375 13.2734C27.275 14.4245 29.3861 15 31.7083 15C32.0778 15 32.434 14.9797 32.7771 14.9391C33.1201 14.8984 33.4764 14.851 33.8458 14.7969C32.7375 12.901 31.2333 11.3776 29.3333 10.2266C27.4333 9.07552 25.3222 8.5 23 8.5C22.6305 8.5 22.2743 8.52031 21.9312 8.56094C21.5882 8.60156 21.2319 8.64896 20.8625 8.70312ZM11.0062 17.3969C12.3521 16.6115 13.5264 15.5958 14.5292 14.35C15.5319 13.1042 16.284 11.7094 16.7854 10.1656C15.4396 10.951 14.2653 11.9667 13.2625 13.2125C12.2597 14.4583 11.5076 15.8531 11.0062 17.3969Z" fill="#404040"/>
</svg>
