<svg width="25" height="20" viewBox="0 0 25 20" fill="none" xmlns="http://www.w3.org/2000/svg">
<path d="M5.58677 19.8333C5.03449 19.8333 4.58678 19.3856 4.58678 18.8333V11.2294C4.58678 10.3926 3.62023 9.92587 2.9649 10.4463L2.2462 11.017C1.80027 11.3711 1.14909 11.2819 0.814791 10.821L0.637859 10.577C0.322989 10.1428 0.40671 9.53754 0.827616 9.20514L11.8642 0.489099C12.2273 0.202306 12.7398 0.202121 13.1031 0.48865L15.7312 2.56103C16.2434 2.96499 16.9959 2.6001 16.9959 1.94773C16.9959 1.51636 17.3456 1.16667 17.7769 1.16667H19.3802C19.9324 1.16667 20.3802 1.61438 20.3802 2.16667V5.75672C20.3802 6.06296 20.5205 6.35232 20.761 6.54195L24.1383 9.20525C24.5597 9.53753 24.6437 10.1431 24.3287 10.5776L24.1521 10.821C23.8179 11.2819 23.1667 11.3711 22.7207 11.017L22.002 10.4463C21.3467 9.92587 20.3802 10.3926 20.3802 11.2294V18.8333C20.3802 19.3856 19.9324 19.8333 19.3802 19.8333H14.6116C14.0593 19.8333 13.6116 19.3856 13.6116 18.8333V13.8333C13.6116 13.281 13.1639 12.8333 12.6116 12.8333H12.3554C11.8031 12.8333 11.3554 13.281 11.3554 13.8333V18.8333C11.3554 19.3856 10.9077 19.8333 10.3554 19.8333H5.58677ZM6.84297 16.5C6.84297 17.0523 7.29069 17.5 7.84297 17.5H8.09917C8.65146 17.5 9.09917 17.0523 9.09917 16.5V11.5C9.09917 10.9477 9.54689 10.5 10.0992 10.5H14.8678C15.4201 10.5 15.8678 10.9477 15.8678 11.5V16.5C15.8678 17.0523 16.3155 17.5 16.8678 17.5H17.124C17.6763 17.5 18.124 17.0523 18.124 16.5V7.8651C18.124 7.5583 17.9831 7.26847 17.7419 7.07888L13.1014 3.43153C12.7388 3.14649 12.2282 3.14649 11.8655 3.43153L7.22502 7.07888C6.98381 7.26847 6.84297 7.5583 6.84297 7.8651V16.5ZM10.452 7.23161C10.1945 7.7202 10.675 8.19583 11.2273 8.19583H13.7397C14.292 8.19583 14.7724 7.7202 14.5149 7.23161C14.4048 7.02252 14.254 6.83351 14.0628 6.66458C13.6116 6.26597 13.0851 6.06667 12.4835 6.06667C11.8818 6.06667 11.3554 6.26597 10.9041 6.66458C10.7129 6.83351 10.5622 7.02252 10.452 7.23161Z" fill="#404040"/>
</svg>
