<svg width="27" height="26" viewBox="0 0 27 26" fill="none" xmlns="http://www.w3.org/2000/svg">
<path d="M12.1901 12.6667C10.9935 12.6667 9.96914 12.2424 9.11703 11.3938C8.26491 10.5451 7.83885 9.525 7.83885 8.33333C7.83885 7.14167 8.26491 6.12153 9.11703 5.27292C9.96914 4.42431 10.9935 4 12.1901 4C13.3867 4 14.411 4.42431 15.2632 5.27292C16.1153 6.12153 16.5413 7.14167 16.5413 8.33333C16.5413 9.525 16.1153 10.5451 15.2632 11.3938C14.411 12.2424 13.3867 12.6667 12.1901 12.6667ZM3.48761 21.3333V18.3C3.48761 17.6861 3.64625 17.1219 3.96353 16.6073C4.2808 16.0927 4.70233 15.7 5.22811 15.4292C6.35218 14.8694 7.49438 14.4497 8.65471 14.1698C9.81504 13.8899 10.9935 13.75 12.1901 13.75C13.3867 13.75 14.5651 13.8899 15.7255 14.1698C16.8858 14.4497 18.028 14.8694 19.1521 15.4292C19.6778 15.7 20.0994 16.0927 20.4167 16.6073C20.7339 17.1219 20.8926 17.6861 20.8926 18.3V21.3333H3.48761ZM5.66323 19.1667H18.7169V18.3C18.7169 18.1014 18.6671 17.9208 18.5674 17.7583C18.4677 17.5958 18.3362 17.4694 18.173 17.3792C17.194 16.8917 16.2059 16.526 15.2088 16.2823C14.2116 16.0385 13.2054 15.9167 12.1901 15.9167C11.1748 15.9167 10.1686 16.0385 9.17142 16.2823C8.17426 16.526 7.18616 16.8917 6.20713 17.3792C6.04396 17.4694 5.91252 17.5958 5.8128 17.7583C5.71309 17.9208 5.66323 18.1014 5.66323 18.3V19.1667ZM12.1901 10.5C12.7884 10.5 13.3006 10.2878 13.7266 9.86354C14.1527 9.43924 14.3657 8.92917 14.3657 8.33333C14.3657 7.7375 14.1527 7.22743 13.7266 6.80313C13.3006 6.37882 12.7884 6.16667 12.1901 6.16667C11.5918 6.16667 11.0796 6.37882 10.6536 6.80313C10.2275 7.22743 10.0145 7.7375 10.0145 8.33333C10.0145 8.92917 10.2275 9.43924 10.6536 9.86354C11.0796 10.2878 11.5918 10.5 12.1901 10.5Z" fill="#404040"/>
</svg>
