<svg width="41" height="40" viewBox="0 0 41 40" fill="none" xmlns="http://www.w3.org/2000/svg">
<ellipse cx="20.5" cy="19.5889" rx="20.5" ry="19.5889" fill="white"/>
<path d="M16.6277 22.9202C16.1228 22.9202 15.696 22.7413 15.3474 22.3835C14.9988 22.0257 14.8244 21.5877 14.8244 21.0695C14.8244 20.5513 14.9988 20.1133 15.3474 19.7555C15.696 19.3977 16.1228 19.2188 16.6277 19.2188C17.1326 19.2188 17.5594 19.3977 17.908 19.7555C18.2566 20.1133 18.4309 20.5513 18.4309 21.0695C18.4309 21.5877 18.2566 22.0257 17.908 22.3835C17.5594 22.7413 17.1326 22.9202 16.6277 22.9202ZM25.2832 22.9202C24.7783 22.9202 24.3516 22.7413 24.0029 22.3835C23.6543 22.0257 23.48 21.5877 23.48 21.0695C23.48 20.5513 23.6543 20.1133 24.0029 19.7555C24.3516 19.3977 24.7783 19.2188 25.2832 19.2188C25.7882 19.2188 26.2149 19.3977 26.5635 19.7555C26.9122 20.1133 27.0865 20.5513 27.0865 21.0695C27.0865 21.5877 26.9122 22.0257 26.5635 22.3835C26.2149 22.7413 25.7882 22.9202 25.2832 22.9202ZM20.9555 31.4334C24.1773 31.4334 26.9062 30.2859 29.1422 27.9911C31.3782 25.6962 32.4962 22.8955 32.4962 19.5889C32.4962 18.9967 32.4601 18.423 32.388 17.8678C32.3159 17.3126 32.1836 16.7759 31.9913 16.2577C31.4864 16.381 30.9815 16.4736 30.4766 16.5353C29.9717 16.597 29.4427 16.6278 28.8897 16.6278C26.7018 16.6278 24.6341 16.1466 22.6866 15.1843C20.7391 14.2219 19.0801 12.8771 17.7096 11.1497C16.9403 13.0745 15.8403 14.7463 14.4097 16.1651C12.9791 17.584 11.3141 18.6512 9.41473 19.3668V19.5889C9.41473 22.8955 10.5327 25.6962 12.7688 27.9911C15.0048 30.2859 17.7337 31.4334 20.9555 31.4334ZM20.9555 34.3945C18.9599 34.3945 17.0845 34.0058 15.3294 33.2285C13.5742 32.4512 12.0475 31.3963 10.7491 30.0638C9.45079 28.7313 8.42294 27.1644 7.66558 25.3631C6.90822 23.5617 6.52954 21.637 6.52954 19.5889C6.52954 17.5408 6.90822 15.6161 7.66558 13.8147C8.42294 12.0134 9.45079 10.4465 10.7491 9.11398C12.0475 7.78148 13.5742 6.72658 15.3294 5.94929C17.0845 5.172 18.9599 4.78336 20.9555 4.78336C22.9511 4.78336 24.8264 5.172 26.5816 5.94929C28.3367 6.72658 29.8635 7.78148 31.1618 9.11398C32.4601 10.4465 33.488 12.0134 34.2454 13.8147C35.0027 15.6161 35.3814 17.5408 35.3814 19.5889C35.3814 21.637 35.0027 23.5617 34.2454 25.3631C33.488 27.1644 32.4601 28.7313 31.1618 30.0638C29.8635 31.3963 28.3367 32.4512 26.5816 33.2285C24.8264 34.0058 22.9511 34.3945 20.9555 34.3945ZM19.008 7.92954C20.0178 9.65685 21.3882 11.0449 23.1194 12.0936C24.8505 13.1423 26.7739 13.6667 28.8897 13.6667C29.2263 13.6667 29.5509 13.6482 29.8635 13.6112C30.176 13.5742 30.5006 13.531 30.8372 13.4816C29.8274 11.7543 28.4569 10.3663 26.7258 9.31756C24.9947 8.26883 23.0713 7.74447 20.9555 7.74447C20.6189 7.74447 20.2943 7.76297 19.9817 7.79999C19.6692 7.837 19.3446 7.88018 19.008 7.92954ZM10.0278 15.8505C11.254 15.1349 12.324 14.2096 13.2376 13.0745C14.1512 11.9394 14.8365 10.6686 15.2933 9.26204C14.0671 9.97764 12.9972 10.903 12.0835 12.0381C11.1699 13.1732 10.4846 14.444 10.0278 15.8505Z" fill="#404040"/>
</svg>
