<svg width="39" height="55" viewBox="0 0 39 55" fill="none" xmlns="http://www.w3.org/2000/svg">
<path d="M34.6733 22.2776C35.2461 21.6562 35.2461 20.6514 34.6733 20.0366L25.8983 10.5108C25.4779 10.0547 24.8502 9.92245 24.3018 10.167C23.7533 10.4116 23.3999 10.9934 23.3999 11.6346V16.9231H16.5749C14.9601 16.9231 13.6499 18.3443 13.6499 20.0961V22.2115C13.6499 23.9633 14.9601 25.3846 16.5749 25.3846H23.3999V30.6731C23.3999 31.3143 23.7533 31.896 24.3018 32.1406C24.8502 32.3852 25.4779 32.253 25.8983 31.7969L34.6733 22.2776ZM13.6499 10.5769C14.7285 10.5769 15.5999 9.63159 15.5999 8.46151C15.5999 7.29144 14.7285 6.34613 13.6499 6.34613H9.7499C6.52021 6.34613 3.8999 9.18868 3.8999 12.6923V29.6154C3.8999 33.119 6.52021 35.9615 9.7499 35.9615H13.6499C14.7285 35.9615 15.5999 35.0162 15.5999 33.8461C15.5999 32.6761 14.7285 31.7307 13.6499 31.7307H9.7499C8.67131 31.7307 7.7999 30.7854 7.7999 29.6154V12.6923C7.7999 11.5222 8.67131 10.5769 9.7499 10.5769H13.6499Z" fill="black"/>
</svg>
